<svg width="1000" height="976" viewBox="0 0 1000 976" fill="none" xmlns="http://www.w3.org/2000/svg">
<g clip-path="url(#clip0)">
<path d="M490.93 18.25C494.77 26.5 494.77 26.69 491.51 35.9C488.63 43.38 487.87 53.93 486.91 87.5C485.37 137.56 484.99 139.1 463.89 162.31C456.22 170.56 447.39 181.3 444.13 185.9C437.8 195.11 437.03 194.92 431.09 183.41C428.6 178.81 427.64 177.66 428.4 180.53C428.98 183.22 431.09 188.59 433.2 192.61C436.65 199.32 436.84 201.82 434.93 226.18C432.05 262.24 429.75 276.05 424.57 287.18L420.16 296.58L416.9 282.19C412.68 263.39 407.69 253.42 395.8 240.37C377.39 219.84 378.54 223.68 385.06 206.03C390.43 191.07 394.08 169.97 395.03 147.91L395.61 137.36L410.96 129.5C427.26 121.06 431.87 115.5 436.86 97.66C438.01 93.6299 442.81 84.6199 447.6 77.71C457.96 62.5599 457.96 59.4901 447.6 73.4901C441.27 81.7401 439.93 82.7 438.39 80.0099C436.28 76.3699 439.73 44.14 442.61 38.3799C443.76 36.46 444.53 33.78 444.34 32.43C444.34 29.74 442.04 33.97 438.78 43.17L436.67 48.92L433.03 43.17C428.43 36.46 428.23 37.6099 432.07 46.8099C433.99 51.6 434.95 60.4299 434.95 73.66C434.95 94.3799 433.22 102.82 426.7 112.22C422.29 118.36 401.57 132.55 396.58 132.55C394.66 132.55 391.4 128.33 388.14 121.42L382.96 110.49L386.99 99.17C391.98 84.4 391.79 81.14 386.22 93.03L382 102.62L375.86 91.8799C372.6 85.93 368.95 80.56 367.8 79.8C364.35 77.69 365.88 81.53 370.68 87.47C373.37 90.54 378.74 103.2 382.57 115.28C388.52 134.46 389.47 139.64 389.28 155.56C389.28 168.6 387.94 177.62 385.06 187.21C380.26 202.56 374.32 215.02 371.82 215.02C369.13 215.02 359.74 203.32 356.86 196.03C352.45 185.67 354.17 157.47 359.35 150.38C362.23 146.54 363.19 143.09 362.42 138.68C361.65 132.73 361.27 132.93 356.86 145.39C354.17 152.49 351.11 163.42 349.96 169.37C348.81 175.51 347.27 180.5 346.51 180.5C344.21 180.5 340.95 167.07 340.95 157.48C340.95 152.69 342.29 142.14 343.83 133.89C347.09 116.43 347.47 98.79 344.6 86.7C343.07 79.41 343.26 77.49 346.33 73.27C352.47 65.02 355.73 57.16 357.26 48.14C359.18 36.44 363.21 27.23 369.34 20.33L374.52 14.58L369.15 19.37C361.67 25.89 357.07 35.29 354.57 49.1C352.27 61.18 347.47 69.82 342.1 70.77C338.46 71.54 319.85 58.4901 319.85 55.04C319.85 53.7 321 51.59 322.34 50.2401C324.07 48.13 323.68 48.32 320.42 50.2401C316.78 52.54 315.24 52.54 311.79 50.43C309.3 48.89 314.86 55.03 324.07 63.8599C340.37 79.59 340.76 79.97 342.1 90.91C343.44 103.38 342.1 118.53 337.69 140.21C335.96 148.84 335.2 158.62 335.77 164.95C337.31 178.95 347.66 199.28 361.47 215.4C367.61 222.3 378.35 234.77 385.45 242.83C403.86 263.93 407.13 271.41 406.93 291.94C406.74 310.55 404.63 316.49 386.41 347.18L375.86 365.02L368.95 351.4C365.11 343.73 359.93 334.33 357.25 330.49C353.8 325.5 352.45 320.9 352.45 314.38C352.45 304.21 353.79 302.3 368.37 292.13C378.34 285.42 380.45 281.96 378.15 276.78C377 273.9 376.62 274.09 375.85 277.93C375.08 282.53 358.97 294.43 356.09 292.51C355.13 291.93 353.21 287.52 351.68 282.34C347.65 268.72 338.64 252.03 326.74 236.5C320.79 228.64 316 220.77 316 219.04C316 217.12 317.73 208.87 319.84 200.62C324.44 182.4 324.44 177.03 319.84 187C316.58 194.29 316.39 194.29 314.09 190.26C310.45 183.35 309.87 186.81 313.13 195.82C315.82 203.3 315.82 204.45 312.94 208.86L309.87 213.46L303.35 207.13C292.22 196.39 288.39 186.03 288.58 167.23C288.58 151.89 286.28 152.65 285.51 168C285.13 176.63 282.63 179.89 278.8 176.82C273.62 172.6 275.35 177.59 280.72 182.57C283.41 185.06 287.05 189.67 288.58 192.93C290.31 196 299.71 210 309.49 223.62C319.27 237.43 330.59 255.65 334.62 263.9C341.14 277.52 341.91 280.97 341.91 293.63C341.91 306.87 341.72 308.02 338.07 307.44C331.55 306.29 313.33 292.67 310.45 286.92C308.91 283.85 307.38 275.41 306.81 268.12C306.23 260.83 305.28 256.04 304.51 257.38C302.59 260.26 294.34 247.41 288.78 233.02C283.79 220.17 282.26 220.94 285.33 234.75C286.67 240.5 287.44 246.26 286.86 247.6C286.48 248.94 288.01 252.01 290.31 254.31C294.53 258.53 300.48 279.05 298.17 281.55C294.52 285.19 268.63 266.2 260.57 253.93C249.06 236.67 243.5 190.25 249.64 162.63C254.05 143.06 262.49 126.76 271.32 120.43C275.35 117.55 277.65 115.25 276.5 115.25C275.54 115.25 273.62 116.21 272.28 117.55C268.44 121.39 267.87 118.12 269.98 105.46C272.28 91.27 272.28 73.81 270.17 68.25C269.21 65.95 268.25 73.6201 267.68 88.39C267.1 108.15 266.34 113.71 262.88 120.23C260.58 124.45 257.32 129.05 255.78 130.4C253.29 132.51 252.52 132.13 250.79 128.48C248.49 123.49 239.28 115.82 239.28 118.7C239.28 119.66 240.62 121.58 242.16 122.92C243.89 124.26 246.57 128.29 248.3 131.94C252.33 140.76 250.03 152.27 243.7 153.23C230.27 155.15 206.68 129.25 206.68 112.56C206.68 107.38 208.79 103.35 216.27 94.53C224.9 84.17 225.48 83.02 221.07 84.17C213.21 86.28 201.89 108.34 203.81 117.93C206.88 131.74 224.91 153.42 237.38 157.64C240.45 158.79 243.33 160.9 243.9 162.24C245.05 165.31 241.21 190.05 239.49 190.05C236.23 190.05 190.77 143.25 188.47 137.49C186.94 133.85 184.83 130.58 183.87 130.2C180.99 129.24 172.17 114.86 172.17 111.21C172.17 109.29 171.21 107.18 170.06 106.61C165.84 103.92 166.22 107.57 171.21 116.2C174.09 120.99 176.01 125.41 175.43 126.17C173.7 127.7 162.58 125.21 156.06 121.95C152.99 120.22 150.11 119.46 149.54 120.03C148.2 121.18 164.5 128.66 168.91 128.66C174.47 128.66 183.3 134.03 184.64 138.25C187.71 148.03 172.56 153.4 154.52 148.8C148.19 147.26 142.44 146.31 141.86 146.88C141.28 147.46 141.86 147.84 143.2 147.84C144.93 147.84 145.31 149.37 144.74 151.87C143.97 154.94 144.16 155.32 146.27 153.6C147.8 152.26 153.18 151.87 160.85 152.64C169.48 153.6 175.43 153.02 180.99 151.11L188.85 148.23L210.91 170.48C234.5 194.65 241.22 202.51 241.22 206.54C241.22 211.14 235.85 209.61 220.5 200.79C201.13 189.86 196.71 188.51 169.28 186.4C156.62 185.25 144.15 183.91 141.47 183.33C137.44 182.37 137.25 182.37 139.94 184.29C141.86 185.44 150.11 187.74 158.16 189.28C166.41 190.81 173.31 192.92 173.7 193.88C174.08 195.03 176 195.03 178.3 193.69C180.6 192.54 185.97 191.96 190.58 192.54C199.98 193.5 216.28 202.32 216.28 206.35C216.28 207.88 212.44 211.34 207.65 214.22C202.85 216.9 199.21 219.78 199.79 220.17C200.37 220.75 205.54 218.44 211.49 215.18L222.23 209.04L232.2 214.41C241.79 219.59 242.17 220.16 244.48 231.67C247.17 244.91 251.96 255.65 259.44 264.47C262.13 267.54 264.24 270.61 264.24 271.18C264.24 273.1 251.96 276.36 244.48 276.36C231.44 276.36 222.8 272.52 205.35 258.9C182.52 241.06 171.01 234.54 160.66 233.2C144.74 231.09 143.97 230.71 140.71 222.65C138.98 218.43 136.87 214.98 135.91 214.98C134.76 214.98 135.33 217.28 136.87 220.16C140.9 228.02 140.32 232.24 135.33 232.24C128.62 232.05 114.42 225.14 107.13 218.24C103.68 214.79 100.99 213.45 101.57 214.98C101.95 216.51 106.94 221.12 112.5 224.95C120.17 230.32 125.54 232.43 136.29 234.16C167.17 238.96 174.46 240.49 178.49 243.94C181.37 246.43 181.94 247.39 179.83 247.58C178.3 247.58 181.56 250.46 187.12 253.72C199.4 261.58 219.92 276.93 219.92 278.46C220.11 280.57 206.11 282.1 184.63 281.91C163.15 281.91 152.02 279.61 145.5 273.66C143.58 271.93 140.7 270.59 138.79 270.59C133.23 270.59 116.54 261.19 107.33 252.75L98.51 244.69L103.88 251.79C106.76 255.63 108.68 259.85 107.91 261C107.33 261.96 108.1 262.92 109.83 262.92C115.39 262.92 145.7 278.07 144.36 280.18C143.78 281.14 141.67 282.1 139.95 282.1C134.39 282.29 92.38 297.06 96.98 297.25C99.28 297.44 106.76 295.14 113.28 292.26C125.17 287.27 125.56 287.08 188.47 285.74C235.85 284.59 254.46 283.63 262.13 281.33L272.49 278.45L294.74 292.64C331.38 316.23 331.76 313.93 291.86 315.47C272.1 316.24 255.03 315.85 251.39 314.89C246.4 313.55 245.44 313.55 246.4 315.85C247.17 318.15 243.91 318.34 226.64 317.58C211.29 317.01 208.03 317.2 214.36 318.54C219.15 319.5 233.73 320.27 246.97 320.27C260.2 320.46 278.04 321.04 286.68 321.61L302.41 322.95L295.7 331.58C287.64 342.32 286.49 346.54 288.79 357.09L290.71 365.53L290.9 355.75C291.09 349.04 292.43 343.86 295.5 339.45C300.49 331.97 312.76 324.3 319.86 324.3C325.42 324.3 340.38 330.82 345.37 335.43C350.16 339.65 358.61 356.72 363.59 372.26C367.43 384.15 375.67 425.39 378.36 446.11C378.94 451.29 379.89 457.81 380.47 460.3C381.43 464.71 381.24 464.9 370.69 463.75C359.56 462.6 350.55 458.38 350.55 454.16C350.55 452.82 347.1 445.72 342.69 438.43C336.36 427.5 335.21 424.43 336.93 421.55C338.85 418.67 338.66 418.29 334.63 419.25C330.41 420.4 330.03 419.63 325.81 401.22C323.51 390.48 321.21 381.85 320.82 381.85C320.44 381.85 320.44 388.18 320.82 395.85C321.39 407.55 322.93 412.92 330.22 429.42C335.21 440.35 339.24 451.1 339.62 453.4C340 457.24 339.24 457.62 332.52 457.24C320.24 456.47 295.69 448.99 286.68 443.24C273.64 434.99 267.31 425.59 267.31 414.47C267.31 409.29 268.46 403.73 270 402C271.73 399.89 271.92 398.36 270.77 397.59C269.62 396.82 267.89 392.41 266.74 387.61C264.82 379.55 264.63 379.36 264.44 385.31C264.44 388.76 263.48 391.26 262.52 390.68C261.56 390.1 261.37 395.09 261.94 402C262.32 408.91 262.32 414.47 261.75 414.47C260.98 414.47 256 408.14 250.24 400.47C228.56 371.31 199.41 349.25 166.61 336.98C156.83 333.34 146.47 328.35 143.78 325.85C139.37 321.63 139.18 321.63 141.09 325.47C143.78 330.65 142.43 331.99 134.95 331.99C129.96 331.99 119.03 334.29 100.23 339.66C94.86 341 94.86 341.19 99.27 341.39C103.68 341.58 103.68 341.77 96.78 346.38C85.27 354.24 88.53 353.86 104.07 345.23L118.46 337.37L138.41 338.14C157.4 338.72 158.93 339.1 174.28 346.77C192.89 356.36 217.25 373.82 217.25 377.84C217.25 382.83 197.49 389.35 181.76 389.73C173.9 389.92 169.48 390.31 172.17 390.88C188.09 393.37 189.24 395.29 178.12 400.85C163.93 408.14 120.96 411.02 110.22 405.65L104.08 402.39L107.72 406.61C111.94 411.21 112.32 410.83 101.58 416.2C90.6 421.83 91.37 422.6 103.46 418C108.83 416.08 120.72 413.78 129.55 413.2C143.94 412.24 145.85 412.43 144.7 415.12C143.74 417.81 144.32 417.81 149.69 415.5C153.14 414.16 161.77 412.05 169.26 410.9C180.58 408.79 182.88 408.98 184.61 411.48C186.34 413.78 187.1 413.4 188.83 408.6C191.52 401.89 208.39 393.25 222.01 391.91L230.64 391.14L244.45 413.01C252.12 424.9 258.84 436.22 259.41 437.95C260.37 440.25 258.26 442.36 251.35 445.81C246.36 448.3 237.92 452.72 232.74 455.59C227.56 458.27 220.85 460.58 217.97 460.58C215.09 460.58 212.02 461.35 211.45 462.5C210.68 463.65 212.79 464.42 216.25 464.42C224.5 464.42 226.03 469.6 219.32 475.36C216.44 477.66 211.84 479.77 208.96 479.77C206.08 479.96 198.6 481.11 192.27 482.65C176.35 486.49 169.06 486.29 164.46 481.69C161.39 478.62 160.62 478.43 160.62 480.73C160.62 483.61 155.06 483.61 132.81 480.73C129.74 480.35 128.21 480.54 129.55 481.11C130.7 481.49 131.85 483.22 131.85 484.75C131.85 486.86 132.62 487.05 135.49 485.71C138.18 484.17 143.16 484.75 154.1 487.63C169.25 491.66 182.11 491.85 204.74 488.21C210.69 487.25 212.6 487.63 213.56 490.13C215.86 496.08 209.72 505.67 192.27 523.89C182.68 533.86 172.9 545.18 170.6 549.02C162.74 562.06 152.76 563.41 141.06 553.24L132.81 546.14L140.48 554.19C148.54 562.82 154.1 564.17 163.5 559.95C166.19 558.8 168.87 558.22 169.45 558.99C171.37 560.91 166.38 580.86 162.93 584.5C161.01 586.42 158.9 589.87 158.13 591.79C156.79 595.05 157.17 595.05 159.86 592.75C161.59 591.22 165.04 586.8 167.53 582.97C170.22 578.94 173.48 575.68 175.01 575.68C177.7 575.68 177.7 575.1 175.2 571.27C172.9 568.01 172.71 565.33 174.24 558.61C176.35 549.02 180.19 540.96 184.41 537.51C186.9 535.4 187.67 535.59 188.63 538.09C189.59 540.77 190.36 540.39 193.23 535.98C198.22 527.92 214.52 512.19 217.02 512.96C218.17 513.34 219.51 515.26 219.71 517.37C221.44 526.58 222.97 522.55 222.4 510.85C221.82 498.96 222.21 496.85 229.69 482.08C236.79 468.08 238.71 465.58 247.53 460.6C260.38 453.12 269.59 453.12 285.51 460.41C301.24 467.51 318.12 472.5 351.3 479.78C366.07 482.85 380.07 486.88 382.37 488.41C384.86 489.94 389.85 497.62 393.3 505.29C396.95 512.96 408.45 533.1 419 549.99C429.36 566.68 440.29 584.52 443.17 589.5C448.92 599.28 458.13 625.75 462.54 644.55C465.8 658.94 466.18 658.94 446.04 644.55C409.98 618.46 406.72 614.05 410.36 593.34L412.66 579.91L403.26 564.37C398.08 555.93 393.48 549.22 393.09 549.6C392.71 550.18 393.28 552.09 394.43 554.2C397.88 560.91 397.12 564.56 392.51 563.22C389.63 562.26 388.87 562.45 389.63 563.99C390.4 565.14 392.89 566.1 395.38 566.1C405.74 566.1 408.81 579.34 404.01 603.12L401.71 614.05L393.85 607.91C372.75 591.8 354.33 570.31 354.33 561.87C354.33 559.38 356.06 552.86 358.17 547.29C360.28 541.73 362.01 535.21 362.01 532.71C362.01 527.15 357.02 515.06 353.95 513.15C352.42 512.19 352.22 512.77 353.37 515.45C358.55 527.72 360.85 535.4 359.51 536.55C358.74 537.32 354.52 534.63 349.92 530.41C343.97 524.85 343.4 524.46 347.62 529.26C353.95 536.36 354.72 544.61 349.54 554.39L346.47 560.72L339.95 553.24C336.5 549.21 332.28 543.84 330.93 541.16C329.59 538.48 325.94 534.25 323.07 531.76C316.76 526.57 306.4 511.8 306.4 508.15C306.21 506.81 303.52 502.59 300.45 498.94L294.5 492.23L297.76 499.9C299.49 504.12 301.4 508.72 302.17 510.26C303.13 512.94 301.6 512.94 292 509.49C289.89 508.72 292.19 510.83 296.99 513.9C301.78 516.97 309.07 523.88 313.49 528.86C326.34 544.59 341.49 566.26 340.15 567.41C337.27 570.48 304.47 553.6 291.81 542.66C288.17 539.59 285.29 537.87 285.29 539.02C285.29 540.17 281.84 541.13 277.43 541.13C269.37 541.13 250.96 548.61 246.93 553.6C245.2 555.71 245.2 556.48 246.74 556.48C247.89 556.48 248.85 555.71 248.85 554.75C248.85 551.49 267.84 544.97 277.05 544.97C290.29 544.97 311.19 558.21 304.48 562.23C303.14 563 305.63 564.15 310.62 564.92C319.06 566.26 331.34 572.4 331.34 575.28C331.34 576.05 334.41 576.43 338.25 576.05C344.58 575.28 346.11 576.24 357.43 587.75C364.14 594.66 369.71 601.37 369.71 602.52C369.71 603.67 364.91 606.74 358.97 609.43L348.23 614.23L341.9 610.2C338.45 608.09 334.42 605.02 333.08 603.3C331.74 601.77 328.86 599.46 326.75 598.31C324.45 597.16 326.56 600.23 331.16 605.02C345.93 620.36 338.83 622.86 305.26 613.84C297.97 611.92 288 610.19 283.2 610.39C275.33 610.39 275.72 610.77 289.72 614.23C297.97 616.15 306.41 618.64 308.33 619.79C312.36 621.9 313.51 625.54 310.06 625.54C307.37 625.54 288.77 633.6 289.73 634.36C289.92 634.74 297.21 632.82 305.46 630.33C313.9 627.65 324.83 625.54 330.01 625.54C335 625.54 346.31 623.05 355.71 619.79C364.72 616.53 373.93 614.04 376.04 614.04C380.84 614.04 398.29 625.93 422.46 645.69C447.59 666.21 464.85 684.82 467.73 694.41C469.26 699.59 469.65 716.47 468.88 750.42C467.92 801.06 466.77 812.76 451.23 925.36C447.59 952.02 444.13 977.34 443.56 981.95L442.4 990H503.2H563.82L562.67 985.59C559.79 975.81 555.77 927.28 553.85 881.24C549.25 768.07 548.1 755.41 539.27 709.37C533.71 679.64 533.13 669.86 536.78 667.55C541 664.86 541.96 665.44 545.03 671C547.14 674.84 547.91 675.41 548.1 672.92C548.1 671.19 549.44 669.66 551.17 669.66C555.77 669.66 552.32 665.82 545.03 662.76C541.39 661.23 538.51 659.11 538.51 658.16C538.51 657.21 541 653.56 543.88 650.3C550.78 642.43 557.12 643.59 563.83 653.75C569.97 663.15 578.22 671.21 584.93 674.66C591.45 678.11 607.95 681.37 606.41 679.07C605.83 678.11 604.3 677.34 603.15 677.34C595.09 677.34 585.89 672.35 578.02 664.3C564.98 650.49 557.69 640.71 558.84 638.59C559.99 636.67 575.34 637.44 595.86 640.13C601.61 640.9 603.92 640.71 602.96 639.36C602.19 638.21 600.66 637.63 599.32 638.02C597.98 638.59 592.8 637.83 587.43 636.49L577.84 633.8L585.51 629.96C589.73 627.66 594.91 624.01 597.02 621.71L600.86 617.3L595.49 620.75C592.61 622.67 588.58 623.63 586.09 623.05C583.6 622.28 581.1 623.05 579.76 624.78C577.07 628.42 563.07 631.69 560.77 629.38C559.62 628.23 560.39 625.93 562.88 623.24C567.1 618.64 569.98 613.46 573.05 605.59C575.73 598.3 574.01 599.45 568.64 608.85C565.95 613.45 560.01 620.55 555.4 624.77C548.69 630.72 547.15 631.48 546.58 628.8C546.2 626.5 544.28 628.61 541.21 634.75C536.03 645.11 529.7 652.01 527.4 649.71C526.63 648.94 526.06 634.37 526.06 617.29C526.06 587.94 526.25 585.64 530.85 576.62L535.64 567.03L552.14 566.45C580.91 565.49 607.19 573.36 624.27 588.13C633.67 596.19 648.82 624.96 651.7 640.69C653.81 652.39 655.54 655.46 655.54 647.98C655.54 641.84 657.46 641.46 662.44 646.83C667.62 652.58 674.14 655.46 684.88 657C696.01 658.72 728.42 656.42 728.42 654.12C728.42 653.16 719.02 652.39 707.32 652.39C693.13 652.39 686.22 651.62 686.22 650.28C686.22 648.17 701.38 633.21 703.48 633.21C704.06 633.21 710 627.84 716.91 621.51C731.87 607.31 727.08 609.23 707.51 625.35C699.65 631.68 692.55 636.48 691.97 636.09C691.2 635.51 690.05 632.64 689.48 629.38C688.71 626.31 687.37 623.63 686.22 623.63C685.07 623.63 685.07 625.36 686.41 628.81C690.25 638.98 683.53 648.57 674.52 645.69C668.96 643.77 660.32 629.39 654.57 612.12C651.88 603.87 646.71 592.36 643.06 586.42C639.61 580.47 637.31 575.29 638.26 574.72C640.18 573.57 653.8 578.17 659.93 582.39C663.58 584.69 664.92 584.88 665.49 582.96C666.26 581.04 668.17 581.23 674.31 583.73C680.64 586.22 682.37 586.42 682.37 584.31C682.37 582.97 684.29 581.24 686.78 580.47C690.04 579.32 688.31 578.74 679.49 577.79C668.36 576.64 659.16 573.19 659.35 570.31C659.54 568.01 684.86 552.66 688.7 552.66C690.62 552.66 694.07 553.62 696.37 554.77C699.44 556.5 700.59 556.5 701.17 554.77C701.55 553.62 704.81 552.66 708.46 552.66C712.49 552.66 714.79 551.89 714.02 550.74C713.44 549.59 707.88 548.82 701.74 548.82C688.51 548.82 685.25 546.52 688.89 539.42C690.42 536.73 693.49 532.71 695.79 530.59C698.09 528.48 700.78 525.22 701.93 523.11C703.85 519.66 703.66 519.66 699.44 522.73C696.94 524.46 693.49 525.8 691.77 525.8C689.85 525.8 687.93 527.91 687.36 530.79C685.83 536.93 670.1 553.81 662.23 557.83C658.2 559.94 651.1 560.9 638.25 560.9C621.95 560.9 618.49 560.32 605.64 554.76C597.77 551.31 582.62 546.32 572.07 543.83C561.52 541.14 552.31 538.27 551.54 537.69C550.77 536.92 561.13 522.73 574.37 505.85L598.54 475.54L607.94 476.31C623.29 477.85 624.44 480.15 619.45 500.48C614.85 519.09 614.27 523.88 616.96 523.88C618.11 523.88 619.45 519.85 620.03 514.86C621.76 502.78 624.63 493.57 627.13 492.03C629.81 490.3 636.34 498.17 636.34 502.97C636.34 507.96 644.78 524.26 649 527.91C652.07 530.21 652.26 530.21 650.73 527.72C649.96 526.19 648.24 523.5 646.89 521.97C645.55 520.43 643.44 514.68 642.1 509.5C640.76 504.13 637.11 495.31 634.24 489.55C631.17 483.8 628.87 479 629.25 478.81C629.44 478.43 639.22 476.51 650.73 474.21C666.46 471.14 676.24 468.07 689.09 461.55C698.68 456.76 708.85 452.92 711.53 452.92C718.82 452.92 744.71 471.14 754.5 483.04C763.9 494.55 767.74 506.44 769.46 529.46C770.23 539.24 772.34 549.22 774.64 554.4C777.14 560.34 778.09 565.53 777.52 569.94C776.56 575.31 776.75 575.89 778.29 572.24C780.59 566.87 781.55 566.87 792.29 573.78C797.28 576.85 801.88 579.53 802.65 579.53C803.22 579.53 800.54 576.85 796.51 573.78C792.48 570.52 788.45 568.03 787.69 568.03C786.73 568.03 783.47 564.58 780.4 560.17C774.84 552.69 770.23 533.12 773.3 530.25C773.88 529.48 776.75 531.02 779.63 533.7L784.81 538.3L779.82 532.16C776.75 528.32 773.68 520.65 771.57 511.06C769.65 502.81 766.58 493.03 764.66 489.19L761.21 482.09L778.86 488.42C793.63 493.6 798.24 496.28 806.48 504.34C812.04 509.9 818.18 517.58 820.29 521.41C822.4 525.44 824.13 527.36 824.32 525.82C824.32 523.14 818.57 514.12 807.44 499.16L803.03 493.41L810.32 491.68C814.35 490.53 821.45 488.8 826.24 487.84C834.87 485.73 834.87 485.73 827.2 486.69C798.04 489.95 790.75 489.76 779.82 485.73C773.87 483.43 766.59 479.78 763.9 477.48C758.91 473.64 758.72 473.26 762.17 470.77C765.24 468.47 765.05 468.28 759.1 468.28C752 468.28 732.24 457.54 720.74 447.37L714.03 441.42L727.27 428.95C742.23 414.76 752.01 410.73 771.77 410.73C794.98 410.73 813.78 416.87 827.78 428.95C834.88 435.09 837.37 436.05 846.96 436.62L857.89 437.2L848.88 434.71C837.93 431.81 821.81 422.6 823.35 420.3C824.69 418.19 853.47 426.05 864.59 431.81C869.38 434.11 877.06 438.72 881.85 441.78L890.48 447.34L882.81 440.43C878.59 436.79 869.57 430.84 862.67 427.58C850.39 421.44 850.39 421.44 855.96 420.1C868.04 417.41 874.37 418.18 880.51 423.36C886.07 428.16 907.17 439.47 910.05 439.47C910.82 439.47 906.6 436.59 900.46 432.95C889.33 426.62 879.94 418.95 879.94 416.26C879.94 413.96 886.27 411.08 897.59 408.01C904.49 406.09 906.22 405.13 902.58 405.13C899.7 404.94 890.69 407.05 882.44 409.73C874.38 412.22 867.29 413.95 866.71 413.37C866.33 412.99 868.82 409.34 872.46 405.31C876.11 401.28 874.76 402.24 869.01 407.61L859.03 417.01L844.06 415.7C835.81 415.12 820.08 412.25 808.96 409.75C797.83 407.06 781.91 404.38 773.47 403.8C751.41 402.07 750.84 401.12 765.22 390.95C786.89 375.41 797.25 374.26 817.97 384.81C825.07 388.45 828.9 389.99 826.22 388.26C823.53 386.34 818.55 382.12 814.9 378.86L808.57 373.11L813.75 369.66C816.63 367.74 822 365.06 825.83 363.71C829.86 362.18 831.58 361.02 829.86 361.02C827.94 360.83 820.65 363.32 813.56 366.39C806.27 369.46 795.53 372.91 789.77 373.87C784.02 375.02 775.19 377.71 770.21 379.82C765.03 381.93 761 383.27 761 382.7C761 382.12 762.92 378.86 765.22 375.6C767.52 372.34 768.29 370.42 767.14 371.19C765.8 371.96 761.19 377.52 756.78 383.47C746.81 396.9 728.97 414.55 724.94 414.55C718.99 414.55 726.86 371.58 734.34 363.14C736.83 360.45 737.41 359.11 735.68 360.65C731.65 363.72 728.97 362.19 725.9 354.9C723.79 349.53 723.6 350.49 723.6 364.49C723.6 383.29 721.68 385.97 712.09 381.37C702.69 376.96 701.73 377.34 709.4 382.52C713.05 384.82 715.92 388.08 715.92 389.62C715.92 391.16 715.15 400.17 714.19 409.76C712.66 426.83 712.66 427.02 703.64 436.23C690.8 449.84 667.4 460.58 650.71 460.58H645.15L655.51 449.65C661.26 443.7 663.18 441.21 659.54 444.09C653.02 449.46 649.18 449.46 653.59 444.28C655.7 441.79 655.51 441.6 652.82 442.55C651.09 443.13 649.75 444.28 649.75 445.04C649.75 445.62 646.49 449.84 642.27 454.44C635.56 461.73 634.02 462.5 626.16 462.5C621.36 462.5 616.18 461.92 614.46 461.35C610.82 460.01 610.43 451.76 613.5 443.89C614.65 441.01 616.38 422.98 617.15 403.8C619.26 352.2 619.45 352.01 668.36 327.65L693.68 314.8L714.4 324.58C744.13 338.58 747.01 339.35 775.4 341.84C798.61 343.76 801.49 343.57 805.52 340.69C809.55 337.62 809.74 337.62 805.9 338.58C801.87 339.73 761.2 336.85 751.04 334.74C747.97 334.16 745.67 333.01 745.67 332.44C745.67 330.71 772.91 321.12 782.12 319.59C787.11 318.63 789.02 317.29 789.02 314.79C789.02 312.49 788.25 311.72 786.91 312.68C785.95 313.64 775.02 317.48 762.93 321.5C742.98 327.83 740.1 328.41 733.2 326.29C725.72 324.18 701.55 311.52 701.55 309.99C701.55 309.41 706.92 302.51 713.63 294.26C720.15 286.01 727.06 277.19 728.79 274.69C731.86 270.28 732.43 270.09 740.11 272.39C744.52 273.73 759.48 275.27 773.3 275.84C804.37 277.18 809.75 279.29 828.93 297.32C844.85 312.47 850.99 315.73 837.75 302.11L829.12 293.48L843.51 294.63C852.14 295.4 860.2 297.51 863.65 299.62C877.46 308.06 880.72 309.21 893 309.98L905.85 310.94L890.89 308.25C875.35 305.37 865.76 300.77 866.91 296.93C867.29 295.59 872.47 292.33 878.23 289.45C890.7 283.31 888.59 282.55 873.05 288.11C866.72 290.41 856.36 292.14 849.26 292.33C838.71 292.71 835.26 291.75 826.82 287.15C821.45 284.08 814.74 279.28 811.86 276.41L806.87 271.23L818.95 260.1C836.98 243.8 842.54 241.49 870.36 238.81C889.35 237.08 891.65 236.51 881.87 236.51C870.17 236.32 851.18 238.43 839.29 241.11C834.11 242.26 833.92 242.07 833.92 234.97C833.92 229.41 833.34 228.26 832 230.37C831.04 231.9 830.08 235.74 830.08 238.62C830.08 242.84 826.82 247.44 817.23 257.61L804.19 271.04L777.34 270.27C747.99 269.5 738.59 267.01 739.55 260.1C740.13 255.5 761.8 212.53 767.36 204.66C772.54 197.18 792.87 187.97 806.68 186.82C819.15 185.67 834.49 189.31 849.84 197.18C855.02 199.67 859.62 201.4 860.01 201.02C860.59 200.64 858.29 199.1 855.22 197.76C846.78 194.31 843.71 190.28 847.74 187.98C849.47 187.02 852.92 183.38 855.22 179.93C859.25 173.98 859.06 174.18 851.58 181.27L843.52 188.94L830.67 186.26C811.68 182.62 811.87 182.81 818.01 176.09L823.38 170.34L817.63 174.37C811.3 178.97 780.03 192.02 775.43 192.02C773.9 192.02 772.55 191.06 772.55 189.72C772.55 187.04 785.4 163.82 787.9 162.29C789.05 161.71 789.82 159.61 789.82 157.69C789.82 154.24 803.82 132.95 817.06 116.26L824.73 106.67L815.71 116.26C803.24 129.69 783.1 159.99 768.71 187.81L756.24 211.4L754.9 195.48C754.13 186.85 752.6 175.72 751.45 170.74C749.15 161.72 749.34 161.53 755.67 155.59C759.12 152.52 764.3 149.26 767.18 148.68C770.06 147.91 773.51 146.19 774.66 144.65C776.58 142.54 776.2 142.35 771.78 144.07C768.9 145.03 766.22 145.99 765.64 145.99C765.26 145.99 764.68 141.96 764.68 136.78C764.49 131.79 763.72 125.08 762.95 122.01C761.8 117.79 761.42 120.09 761.22 130.83C761.03 144.45 760.64 145.79 754.51 152.89L747.99 160.37L742.81 155.57C735.52 148.86 730.15 140.99 727.27 132.74C725.16 126.79 724.77 126.6 724.58 130.63C724.58 135.81 728.22 142.71 738.58 156.14C744.72 164.2 749.32 175.71 747.21 177.82C746.06 178.78 722.27 161.13 713.64 153.08C710.19 149.82 707.31 148.09 707.31 149.24C707.31 151.35 739.73 178.01 747.21 182.23C749.9 183.77 750.47 187.03 750.09 202.56C749.9 218.67 749.13 222.51 743.76 233.63C726.88 270.08 700.6 299.81 674.13 312.85C665.11 317.45 656.48 320.52 654.95 319.95C653.42 319.37 651.11 314.39 649.77 308.82C647.47 299.23 647.47 298.65 651.5 295.39L655.72 291.94L650.35 291.36C645.94 290.98 644.79 289.83 644.4 284.65C643.25 273.14 658.59 252.81 674.32 244.75C677.97 243.02 680.46 241.11 679.88 240.72C679.31 240.14 675.47 241.49 671.06 243.6C666.84 245.9 662.81 247.63 662.24 247.63C660.13 247.63 661.47 239.57 664.35 234.97C666.08 232.48 667.04 229.79 666.46 229.22C665.12 227.69 660.13 237.47 658.59 244.76C657.82 247.83 654.37 254.16 650.73 258.76C647.28 263.36 644.02 267.97 643.63 269.12C641.91 273.92 636.34 268.35 633.66 259.72C631.94 254.16 630.78 252.24 630.78 254.92C630.59 257.22 631.93 262.21 633.47 266.05C635 269.69 637.12 278.13 638.27 284.66C639.42 291.18 641.72 301.92 643.26 308.25C645.18 315.54 645.76 321.29 644.8 323.02C643.84 324.56 637.51 329.73 630.6 334.34C623.69 338.94 615.83 346.23 612.76 350.84C609.69 355.44 606.81 358.7 606.43 358.32C606.05 357.94 603.17 349.5 600.1 339.52C597.03 329.55 592.24 315.16 589.36 307.3C582.84 289.08 583.8 281.98 595.5 261.84C600.29 253.59 606.62 240.36 609.31 232.3C614.11 218.3 614.49 217.91 624.85 212.93C630.6 210.05 639.43 204.3 644.22 199.89C653.05 192.22 653.24 192.02 657.65 195.67C665.52 201.81 677.98 207.18 686.62 208.33L694.87 209.48L688.35 206.41C684.9 204.88 679.72 203.53 677.22 203.53C673.77 203.53 672.62 202.76 673.58 200.65C674.35 198.54 673.39 197.77 670.13 197.77C663.61 197.77 657.47 190.1 657.47 182.23C657.47 172.45 664.76 132.93 668.21 123.53C670.13 118.16 675.31 111.64 682.98 104.54C694.49 93.9901 694.49 93.8 685.86 99.75C672.63 108.57 661.31 125.07 661.31 135.43C661.31 138.12 660.54 140.23 659.39 140.23C655.55 140.23 641.55 116.44 637.14 102.83L634.65 95.16V101.5C634.46 105.53 638.29 114.93 645.2 128.35C655.37 147.72 655.94 149.45 654.98 159.43C653.64 174.58 646.92 188.97 637.14 197.41C629.27 204.32 616.04 210.26 614.5 207.77C614.12 207 612.39 199.14 610.66 190.12C608.94 181.1 605.29 165.95 602.41 156.55C598 142.16 597.04 135.83 597.23 119.14C597.23 108.01 596.65 101.11 595.89 103.79C595.12 106.48 594.55 114.92 594.35 122.4C594.16 130.07 593.39 136.4 592.43 136.4C589.75 136.4 574.01 117.03 569.6 108.4C565.57 100.34 557.71 61.79 557.71 49.7C557.71 46.06 559.43 39.92 561.35 36.08C563.46 31.86 564.04 29.75 562.5 30.9C561.16 32.05 559.05 35.5 557.71 38.57C555.41 44.32 551.96 46.44 551.96 42.02C551.96 40.87 551.58 40.29 551 40.68C550.62 41.2599 551.77 46.82 553.68 53.15C557.13 63.7 562.89 100.72 561.93 104.56C561.55 105.33 566.53 112.23 572.67 119.91C600.67 154.05 603.94 162.11 605.28 199.9C606.05 226.75 605.86 228.48 601.44 238.26C598.75 244.01 593 254.18 588.78 260.89C584.37 267.6 580.72 274.7 580.72 276.62C580.72 278.54 579.95 280.46 578.8 281.22C575.16 283.52 570.74 269.71 567.1 243.24C564.8 228.28 560.58 208.33 557.51 198.93C554.44 189.53 551.95 181.09 551.95 179.94C551.95 178.79 556.55 173.61 562.12 168.43C569.79 160.95 570.56 159.8 565.38 163.25C561.74 165.74 556.37 169.77 553.49 172.46L548.5 177.06L546.2 172.84C544.86 170.35 543.32 163.44 542.94 157.3C542.36 150.97 541.02 145.98 540.25 145.98C539.29 145.98 538.52 147.71 538.52 149.82C538.52 153.85 534.87 155.19 534.49 151.16C534.49 150.01 532.76 145.41 530.65 141.18C528.73 136.96 527.58 135.62 528.16 138.3C528.93 140.99 532.19 149.23 535.83 156.91C539.28 164.58 545.42 178.78 549.26 188.56C553.1 198.34 556.74 207.74 557.32 209.28C557.89 210.81 553.48 207.55 547.35 201.99C541.21 196.43 532.58 190.1 528.55 187.99C517.42 182.24 521.45 186.84 533.54 193.74C551.96 204.1 558.67 216.95 561.55 248.03C562.89 261.46 565.19 271.82 569.99 284.48C573.64 294.26 576.51 302.51 576.13 302.7C575.94 303.08 569.42 297.9 561.74 291.57C554.26 285.05 547.55 280.06 547.16 280.64C546.2 281.6 551.76 287.35 568.45 302.12C573.82 306.92 580.34 314.97 583.22 319.96C594.15 340.29 601.06 382.3 599.53 419.71C598.38 449.06 594.73 456.16 565.39 489.34C530.86 528.28 517.05 549.76 506.89 580.45C502.48 593.88 501.71 600.02 500.75 629.36C499.79 661.58 497.87 677.31 494.8 677.31C493.84 677.31 491.73 669.25 489.81 659.47C484.82 633 474.66 604.23 460.65 578.14C444.7 548.05 444.7 545.56 459.09 522.73C465.23 513.33 474.44 498.37 479.81 489.35C491.32 469.78 503.21 457.7 517.6 450.41C527.96 445.23 528.34 445.23 536.4 448.11C546.18 451.56 546.18 451.56 546.18 449.26C546.18 448.3 543.49 447.15 540.23 446.38C532.17 444.84 533.71 441.97 547.71 432.76C556.53 427.01 559.41 423.94 559.6 420.29C559.6 417.6 560.94 413.38 562.48 410.7C564.01 408.01 565.16 404.56 565.16 403.03C565.35 401.5 563.63 403.61 561.71 407.83C557.49 417.23 545.79 428.16 532.94 434.68C520.86 440.63 520.47 440.63 523.92 434.1C525.46 431.22 528.52 422.78 530.83 415.11C534.67 402.45 539.27 393.82 550.2 379.05C553.84 374.06 553.46 374.26 546.94 380.58C542.72 384.42 536.77 391.9 533.71 397.27C530.45 402.45 527.19 406.48 526.04 406.29C525.08 405.91 523.55 401.88 522.78 397.08C522.2 392.48 522.01 396.12 522.59 405.14C523.17 417.99 522.78 423.17 520.48 427.77C516.84 434.48 510.31 438.9 507.44 436.02C503.99 432.57 499.96 412.04 498.42 389.79C497.46 376.94 495.73 365.62 494.2 363.32C492.09 359.68 492.09 358.14 494.97 352.39C498.62 344.33 505.71 340.5 518.76 338.58C529.31 337.24 534.49 334.94 532.19 332.83C531.42 332.06 529.69 332.45 528.55 333.6C525.1 337.05 506.3 336.67 505.53 333.02C505.15 331.29 501.5 334.94 496.51 342.61C491.91 349.52 487.49 355.08 486.73 355.08C486.15 355.08 481.93 351.24 477.33 346.64L468.89 338.01L473.88 329.76C480.4 318.63 494.98 305.21 500.73 305.21C503.22 305.21 506.87 303.87 508.98 302.14C512.43 299.45 512.43 299.26 509.17 300.22C499.58 303.29 496.13 303.48 493.44 301.37C491.91 300.03 490.56 299.84 490.56 300.79C490.56 303.09 469.65 330.9 467.35 331.67C466.58 332.05 465.24 330.14 464.47 327.26C462.17 318.05 465.05 303.86 471.95 288.9C479.43 273.36 481.54 264.92 475.21 276.43C468.5 288.71 459.86 312.68 459.86 319.01C460.05 328.41 465.61 338.96 479.81 355.84C491.13 369.46 492.47 371.95 492.47 379.43C492.47 384.03 491.7 387.68 490.74 387.68C486.9 387.68 464.46 360.44 458.51 348.93C451.99 336.08 449.69 337.23 456.02 350.27C458.13 354.49 459.66 359.09 459.86 360.44C459.86 361.98 465.42 368.5 472.14 375.02C485.95 388.64 489.79 396.89 496.88 428.92L501.48 448.87L489.59 458.27L477.7 467.86L466.95 446.2L456.21 424.52L460.43 420.68C462.73 418.57 467.72 415.5 471.36 413.97C475.2 412.24 476.73 410.9 474.81 410.9C472.7 410.71 471.36 409.17 471.36 406.87C471.36 403.42 470.4 403.99 465.41 409.75C462.15 413.39 458.7 416.46 457.74 416.46C455.25 416.46 451.79 400.92 452.94 394.98C453.71 391.34 453.32 389.8 451.98 390.76C450.83 391.34 447.76 389.8 445.07 387.5L440.27 382.9L444.3 390.96C446.41 395.37 448.33 399.97 448.33 401.13C448.33 404.2 442.58 403.43 435.67 399.02C432.03 396.91 429.15 395.95 429.15 396.91C429.15 398.06 433.56 401.51 438.74 404.97C445.26 409.19 448.71 412.84 449.29 416.29C449.87 418.98 453.89 431.64 457.92 444.29C462.14 456.95 465.59 470.19 465.59 473.64C465.59 483.42 459.45 492.82 442 510.09L425.9 526.18L418.23 514.67C413.82 508.15 408.06 495.3 404.61 484.55C395.59 457.12 386.58 410.7 386.2 391.52C386.01 376.37 386.58 374.26 392.72 361.79C396.56 354.31 406.72 336.85 415.35 323.04C438.75 285.44 439.52 282.95 442.59 235.57C445.08 197.4 447.39 190.88 466.57 168.24C480.96 151.36 488.82 138.7 491.31 127.77C492.08 124.51 495.72 115.3 499.37 107.25C504.17 96.51 506.28 88.84 506.85 79.44C507.42 70.42 507.23 67.9301 506.08 71.19C505.12 73.88 504.36 79.4399 504.16 83.66C503.97 87.8799 501.67 96.1299 498.79 101.88L493.8 112.43L492.46 106.68C491.69 103.42 490.93 89.42 490.73 75.6L490.54 50.09L500.32 39.16C505.69 33.02 512.21 26.12 514.9 23.62C517.39 21.32 518.54 19.4 517.39 19.4C516.24 19.4 510.48 23.9999 504.73 29.7599C498.98 35.5099 494.37 39.54 494.37 38.78C494.37 37.8199 496.48 32.2599 499.17 26.3099C503.97 15.1799 504.35 11.54 499.55 20.75L496.67 25.93L492.64 17.87C487.28 7.13 485.56 7.51001 490.93 18.25Z" fill="#A1AA3C"/>
<path d="M569 22.47L564.4 27.46L569.77 24.97C572.65 23.63 574.95 21.52 574.95 19.98C574.94 16.52 574.37 16.72 569 22.47Z" fill="#A1AA3C"/>
<path d="M661.26 50.09C657.62 53.35 651.86 56.42 648.22 57C640.74 58.34 637.09 64.86 635.37 79.25L634.41 87.5L636.9 78.87C640.16 66.98 641.69 64.87 651.86 59.11C656.65 56.23 662.6 51.82 665.1 49.14C671.04 42.8 669.51 43.19 661.26 50.09Z" fill="#A1AA3C"/>
<path d="M594.7 91.53C595.85 95.37 597.19 97.48 597.58 96.32C598.73 93.06 596.24 84.62 594.32 84.62C593.36 84.62 593.55 87.69 594.7 91.53Z" fill="#A1AA3C"/>
<path d="M690.03 197.79C686.39 200.86 684.28 203.35 685.43 203.54C686.39 203.54 689.84 200.86 692.91 197.79C700.01 190.5 698.48 190.31 690.03 197.79Z" fill="#A1AA3C"/>
<path d="M850.78 333.41C852.12 333.98 853.85 333.79 854.43 333.22C855.2 332.64 854.05 332.07 851.94 332.26C849.82 332.26 849.24 332.83 850.78 333.41Z" fill="#A1AA3C"/>
<path d="M490.93 8.25C494.77 16.5 494.77 16.69 491.51 25.9C488.63 33.38 487.87 43.93 486.91 77.5C485.37 127.56 484.99 129.1 463.89 152.31C456.22 160.56 447.39 171.3 444.13 175.9C437.8 185.11 437.03 184.92 431.09 173.41C428.6 168.81 427.64 167.66 428.4 170.53C428.98 173.22 431.09 178.59 433.2 182.61C436.65 189.32 436.84 191.82 434.93 216.18C432.05 252.24 429.75 266.05 424.57 277.18L420.16 286.58L416.9 272.19C412.68 253.39 407.69 243.42 395.8 230.37C377.39 209.84 378.54 213.68 385.06 196.03C390.43 181.07 394.08 159.97 395.03 137.91L395.61 127.36L410.96 119.5C427.26 111.06 431.87 105.5 436.86 87.66C438.01 83.6299 442.81 74.6199 447.6 67.71C457.96 52.5599 457.96 49.4901 447.6 63.4901C441.27 71.7401 439.93 72.7 438.39 70.0099C436.28 66.3699 439.73 34.14 442.61 28.3799C443.76 26.46 444.53 23.78 444.34 22.43C444.34 19.74 442.04 23.97 438.78 33.17L436.67 38.92L433.03 33.17C428.43 26.46 428.23 27.6099 432.07 36.8099C433.99 41.6 434.95 50.4299 434.95 63.66C434.95 84.3799 433.22 92.82 426.7 102.22C422.29 108.36 401.57 122.55 396.58 122.55C394.66 122.55 391.4 118.33 388.14 111.42L382.96 100.49L386.99 89.17C391.98 74.4 391.79 71.14 386.22 83.03L382 92.62L375.86 81.8799C372.6 75.93 368.95 70.56 367.8 69.8C364.35 67.69 365.88 71.53 370.68 77.47C373.37 80.54 378.74 93.2 382.57 105.28C388.52 124.46 389.47 129.64 389.28 145.56C389.28 158.6 387.94 167.62 385.06 177.21C380.26 192.56 374.32 205.02 371.82 205.02C369.13 205.02 359.74 193.32 356.86 186.03C352.45 175.67 354.17 147.47 359.35 140.38C362.23 136.54 363.19 133.09 362.42 128.68C361.65 122.73 361.27 122.93 356.86 135.39C354.17 142.49 351.11 153.42 349.96 159.37C348.81 165.51 347.27 170.5 346.51 170.5C344.21 170.5 340.95 157.07 340.95 147.48C340.95 142.69 342.29 132.14 343.83 123.89C347.09 106.43 347.47 88.79 344.6 76.7C343.07 69.41 343.26 67.49 346.33 63.27C352.47 55.02 355.73 47.16 357.26 38.14C359.18 26.44 363.21 17.23 369.34 10.33L374.52 4.57996L369.15 9.37C361.67 15.89 357.07 25.29 354.57 39.1C352.27 51.18 347.47 59.82 342.1 60.77C338.46 61.54 319.85 48.4901 319.85 45.04C319.85 43.7 321 41.59 322.34 40.2401C324.07 38.13 323.68 38.32 320.42 40.2401C316.78 42.54 315.24 42.54 311.79 40.43C309.3 38.89 314.86 45.03 324.07 53.8599C340.37 69.59 340.76 69.97 342.1 80.91C343.44 93.3799 342.1 108.53 337.69 130.21C335.96 138.84 335.2 148.62 335.77 154.95C337.31 168.95 347.66 189.28 361.47 205.4C367.61 212.3 378.35 224.77 385.45 232.83C403.86 253.93 407.13 261.41 406.93 281.94C406.74 300.55 404.63 306.49 386.41 337.18L375.86 355.02L368.95 341.4C365.11 333.73 359.93 324.33 357.25 320.49C353.8 315.5 352.45 310.9 352.45 304.38C352.45 294.21 353.79 292.3 368.37 282.13C378.34 275.42 380.45 271.96 378.15 266.78C377 263.9 376.62 264.09 375.85 267.93C375.08 272.53 358.97 284.43 356.09 282.51C355.13 281.93 353.21 277.52 351.68 272.34C347.65 258.72 338.64 242.03 326.74 226.5C320.79 218.64 316 210.77 316 209.04C316 207.12 317.73 198.87 319.84 190.62C324.44 172.4 324.44 167.03 319.84 177C316.58 184.29 316.39 184.29 314.09 180.26C310.45 173.35 309.87 176.81 313.13 185.82C315.82 193.3 315.82 194.45 312.94 198.86L309.87 203.46L303.35 197.13C292.22 186.39 288.39 176.03 288.58 157.23C288.58 141.89 286.28 142.65 285.51 158C285.13 166.63 282.63 169.89 278.8 166.82C273.62 162.6 275.35 167.59 280.72 172.57C283.41 175.06 287.05 179.67 288.58 182.93C290.31 186 299.71 200 309.49 213.62C319.27 227.43 330.59 245.65 334.62 253.9C341.14 267.52 341.91 270.97 341.91 283.63C341.91 296.87 341.72 298.02 338.07 297.44C331.55 296.29 313.33 282.67 310.45 276.92C308.91 273.85 307.38 265.41 306.81 258.12C306.23 250.83 305.28 246.04 304.51 247.38C302.59 250.26 294.34 237.41 288.78 223.02C283.79 210.17 282.26 210.94 285.33 224.75C286.67 230.5 287.44 236.26 286.86 237.6C286.48 238.94 288.01 242.01 290.31 244.31C294.53 248.53 300.48 269.05 298.17 271.55C294.52 275.19 268.63 256.2 260.57 243.93C249.06 226.67 243.5 180.25 249.64 152.63C254.05 133.06 262.49 116.76 271.32 110.43C275.35 107.55 277.65 105.25 276.5 105.25C275.54 105.25 273.62 106.21 272.28 107.55C268.44 111.39 267.87 108.12 269.98 95.46C272.28 81.27 272.28 63.81 270.17 58.25C269.21 55.95 268.25 63.6201 267.68 78.39C267.1 98.15 266.34 103.71 262.88 110.23C260.58 114.45 257.32 119.05 255.78 120.4C253.29 122.51 252.52 122.13 250.79 118.48C248.49 113.49 239.28 105.82 239.28 108.7C239.28 109.66 240.62 111.58 242.16 112.92C243.89 114.26 246.57 118.29 248.3 121.94C252.33 130.76 250.03 142.27 243.7 143.23C230.27 145.15 206.68 119.25 206.68 102.56C206.68 97.3799 208.79 93.35 216.27 84.53C224.9 74.17 225.48 73.02 221.07 74.17C213.21 76.28 201.89 98.34 203.81 107.93C206.88 121.74 224.91 143.42 237.38 147.64C240.45 148.79 243.33 150.9 243.9 152.24C245.05 155.31 241.21 180.05 239.49 180.05C236.23 180.05 190.77 133.25 188.47 127.49C186.94 123.85 184.83 120.58 183.87 120.2C180.99 119.24 172.17 104.86 172.17 101.21C172.17 99.29 171.21 97.1799 170.06 96.6099C165.84 93.9199 166.22 97.57 171.21 106.2C174.09 110.99 176.01 115.41 175.43 116.17C173.7 117.7 162.58 115.21 156.06 111.95C152.99 110.22 150.11 109.46 149.54 110.03C148.2 111.18 164.5 118.66 168.91 118.66C174.47 118.66 183.3 124.03 184.64 128.25C187.71 138.03 172.56 143.4 154.52 138.8C148.19 137.26 142.44 136.31 141.86 136.88C141.28 137.46 141.86 137.84 143.2 137.84C144.93 137.84 145.31 139.37 144.74 141.87C143.97 144.94 144.16 145.32 146.27 143.6C147.8 142.26 153.18 141.87 160.85 142.64C169.48 143.6 175.43 143.02 180.99 141.11L188.85 138.23L210.91 160.48C234.5 184.65 241.22 192.51 241.22 196.54C241.22 201.14 235.85 199.61 220.5 190.79C201.13 179.86 196.71 178.51 169.28 176.4C156.62 175.25 144.15 173.91 141.47 173.33C137.44 172.37 137.25 172.37 139.94 174.29C141.86 175.44 150.11 177.74 158.16 179.28C166.41 180.81 173.31 182.92 173.7 183.88C174.08 185.03 176 185.03 178.3 183.69C180.6 182.54 185.97 181.96 190.58 182.54C199.98 183.5 216.28 192.32 216.28 196.35C216.28 197.88 212.44 201.34 207.65 204.22C202.85 206.9 199.21 209.78 199.79 210.17C200.37 210.75 205.54 208.44 211.49 205.18L222.23 199.04L232.2 204.41C241.79 209.59 242.17 210.16 244.48 221.67C247.17 234.91 251.96 245.65 259.44 254.47C262.13 257.54 264.24 260.61 264.24 261.18C264.24 263.1 251.96 266.36 244.48 266.36C231.44 266.36 222.8 262.52 205.35 248.9C182.52 231.06 171.01 224.54 160.66 223.2C144.74 221.09 143.97 220.71 140.71 212.65C138.98 208.43 136.87 204.98 135.91 204.98C134.76 204.98 135.33 207.28 136.87 210.16C140.9 218.02 140.32 222.24 135.33 222.24C128.62 222.05 114.42 215.14 107.13 208.24C103.68 204.79 100.99 203.45 101.57 204.98C101.95 206.51 106.94 211.12 112.5 214.95C120.17 220.32 125.54 222.43 136.29 224.16C167.17 228.96 174.46 230.49 178.49 233.94C181.37 236.43 181.94 237.39 179.83 237.58C178.3 237.58 181.56 240.46 187.12 243.72C199.4 251.58 219.92 266.93 219.92 268.46C220.11 270.57 206.11 272.1 184.63 271.91C163.15 271.91 152.02 269.61 145.5 263.66C143.58 261.93 140.7 260.59 138.79 260.59C133.23 260.59 116.54 251.19 107.33 242.75L98.51 234.69L103.88 241.79C106.76 245.63 108.68 249.85 107.91 251C107.33 251.96 108.1 252.92 109.83 252.92C115.39 252.92 145.7 268.07 144.36 270.18C143.78 271.14 141.67 272.1 139.95 272.1C134.39 272.29 92.38 287.06 96.98 287.25C99.28 287.44 106.76 285.14 113.28 282.26C125.17 277.27 125.56 277.08 188.47 275.74C235.85 274.59 254.46 273.63 262.13 271.33L272.49 268.45L294.74 282.64C331.38 306.23 331.76 303.93 291.86 305.47C272.1 306.24 255.03 305.85 251.39 304.89C246.4 303.55 245.44 303.55 246.4 305.85C247.17 308.15 243.91 308.34 226.64 307.58C211.29 307.01 208.03 307.2 214.36 308.54C219.15 309.5 233.73 310.27 246.97 310.27C260.2 310.46 278.04 311.04 286.68 311.61L302.41 312.95L295.7 321.58C287.64 332.32 286.49 336.54 288.79 347.09L290.71 355.53L290.9 345.75C291.09 339.04 292.43 333.86 295.5 329.45C300.49 321.97 312.76 314.3 319.86 314.3C325.42 314.3 340.38 320.82 345.37 325.43C350.16 329.65 358.61 346.72 363.59 362.26C367.43 374.15 375.67 415.39 378.36 436.11C378.94 441.29 379.89 447.81 380.47 450.3C381.43 454.71 381.24 454.9 370.69 453.75C359.56 452.6 350.55 448.38 350.55 444.16C350.55 442.82 347.1 435.72 342.69 428.43C336.36 417.5 335.21 414.43 336.93 411.55C338.85 408.67 338.66 408.29 334.63 409.25C330.41 410.4 330.03 409.63 325.81 391.22C323.51 380.48 321.21 371.85 320.82 371.85C320.44 371.85 320.44 378.18 320.82 385.85C321.39 397.55 322.93 402.92 330.22 419.42C335.21 430.35 339.24 441.1 339.62 443.4C340 447.24 339.24 447.62 332.52 447.24C320.24 446.47 295.69 438.99 286.68 433.24C273.64 424.99 267.31 415.59 267.31 404.47C267.31 399.29 268.46 393.73 270 392C271.73 389.89 271.92 388.36 270.77 387.59C269.62 386.82 267.89 382.41 266.74 377.61C264.82 369.55 264.63 369.36 264.44 375.31C264.44 378.76 263.48 381.26 262.52 380.68C261.56 380.1 261.37 385.09 261.94 392C262.32 398.91 262.32 404.47 261.75 404.47C260.98 404.47 256 398.14 250.24 390.47C228.56 361.31 199.41 339.25 166.61 326.98C156.83 323.34 146.47 318.35 143.78 315.85C139.37 311.63 139.18 311.63 141.09 315.47C143.78 320.65 142.43 321.99 134.95 321.99C129.96 321.99 119.03 324.29 100.23 329.66C94.86 331 94.86 331.19 99.27 331.39C103.68 331.58 103.68 331.77 96.78 336.38C85.27 344.24 88.53 343.86 104.07 335.23L118.46 327.37L138.41 328.14C157.4 328.72 158.93 329.1 174.28 336.77C192.89 346.36 217.25 363.82 217.25 367.84C217.25 372.83 197.49 379.35 181.76 379.73C173.9 379.92 169.48 380.31 172.17 380.88C188.09 383.37 189.24 385.29 178.12 390.85C163.93 398.14 120.96 401.02 110.22 395.65L104.08 392.39L107.72 396.61C111.94 401.21 112.32 400.83 101.58 406.2C90.6 411.83 91.37 412.6 103.46 408C108.83 406.08 120.72 403.78 129.55 403.2C143.94 402.24 145.85 402.43 144.7 405.12C143.74 407.81 144.32 407.81 149.69 405.5C153.14 404.16 161.77 402.05 169.26 400.9C180.58 398.79 182.88 398.98 184.61 401.48C186.34 403.78 187.1 403.4 188.83 398.6C191.52 391.89 208.39 383.25 222.01 381.91L230.64 381.14L244.45 403.01C252.12 414.9 258.84 426.22 259.41 427.95C260.37 430.25 258.26 432.36 251.35 435.81C246.36 438.3 237.92 442.72 232.74 445.59C227.56 448.27 220.85 450.58 217.97 450.58C215.09 450.58 212.02 451.35 211.45 452.5C210.68 453.65 212.79 454.42 216.25 454.42C224.5 454.42 226.03 459.6 219.32 465.36C216.44 467.66 211.84 469.77 208.96 469.77C206.08 469.96 198.6 471.11 192.27 472.65C176.35 476.49 169.06 476.29 164.46 471.69C161.39 468.62 160.62 468.43 160.62 470.73C160.62 473.61 155.06 473.61 132.81 470.73C129.74 470.35 128.21 470.54 129.55 471.11C130.7 471.49 131.85 473.22 131.85 474.75C131.85 476.86 132.62 477.05 135.49 475.71C138.18 474.17 143.16 474.75 154.1 477.63C169.25 481.66 182.11 481.85 204.74 478.21C210.69 477.25 212.6 477.63 213.56 480.13C215.86 486.08 209.72 495.67 192.27 513.89C182.68 523.86 172.9 535.18 170.6 539.02C162.74 552.06 152.76 553.41 141.06 543.24L132.81 536.14L140.48 544.19C148.54 552.82 154.1 554.17 163.5 549.95C166.19 548.8 168.87 548.22 169.45 548.99C171.37 550.91 166.38 570.86 162.93 574.5C161.01 576.42 158.9 579.87 158.13 581.79C156.79 585.05 157.17 585.05 159.86 582.75C161.59 581.22 165.04 576.8 167.53 572.97C170.22 568.94 173.48 565.68 175.01 565.68C177.7 565.68 177.7 565.1 175.2 561.27C172.9 558.01 172.71 555.33 174.24 548.61C176.35 539.02 180.19 530.96 184.41 527.51C186.9 525.4 187.67 525.59 188.63 528.09C189.59 530.77 190.36 530.39 193.23 525.98C198.22 517.92 214.52 502.19 217.02 502.96C218.17 503.34 219.51 505.26 219.71 507.37C221.44 516.58 222.97 512.55 222.4 500.85C221.82 488.96 222.21 486.85 229.69 472.08C236.79 458.08 238.71 455.58 247.53 450.6C260.38 443.12 269.59 443.12 285.51 450.41C301.24 457.51 318.12 462.5 351.3 469.78C366.07 472.85 380.07 476.88 382.37 478.41C384.86 479.94 389.85 487.62 393.3 495.29C396.95 502.96 408.45 523.1 419 539.99C429.36 556.68 440.29 574.52 443.17 579.5C448.92 589.28 458.13 615.75 462.54 634.55C465.8 648.94 466.18 648.94 446.04 634.55C409.98 608.46 406.72 604.05 410.36 583.34L412.66 569.91L403.26 554.37C398.08 545.93 393.48 539.22 393.09 539.6C392.71 540.18 393.28 542.09 394.43 544.2C397.88 550.91 397.12 554.56 392.51 553.22C389.63 552.26 388.87 552.45 389.63 553.99C390.4 555.14 392.89 556.1 395.38 556.1C405.74 556.1 408.81 569.34 404.01 593.12L401.71 604.05L393.85 597.91C372.75 581.8 354.33 560.31 354.33 551.87C354.33 549.38 356.06 542.86 358.17 537.29C360.28 531.73 362.01 525.21 362.01 522.71C362.01 517.15 357.02 505.06 353.95 503.15C352.42 502.19 352.22 502.77 353.37 505.45C358.55 517.72 360.85 525.4 359.51 526.55C358.74 527.32 354.52 524.63 349.92 520.41C343.97 514.85 343.4 514.46 347.62 519.26C353.95 526.36 354.72 534.61 349.54 544.39L346.47 550.72L339.95 543.24C336.5 539.21 332.28 533.84 330.93 531.16C329.59 528.48 325.94 524.25 323.07 521.76C316.76 516.57 306.4 501.8 306.4 498.15C306.21 496.81 303.52 492.59 300.45 488.94L294.5 482.23L297.76 489.9C299.49 494.12 301.4 498.72 302.17 500.26C303.13 502.94 301.6 502.94 292 499.49C289.89 498.72 292.19 500.83 296.99 503.9C301.78 506.97 309.07 513.88 313.49 518.86C326.34 534.59 341.49 556.26 340.15 557.41C337.27 560.48 304.47 543.6 291.81 532.66C288.17 529.59 285.29 527.87 285.29 529.02C285.29 530.17 281.84 531.13 277.43 531.13C269.37 531.13 250.96 538.61 246.93 543.6C245.2 545.71 245.2 546.48 246.74 546.48C247.89 546.48 248.85 545.71 248.85 544.75C248.85 541.49 267.84 534.97 277.05 534.97C290.29 534.97 311.19 548.21 304.48 552.23C303.14 553 305.63 554.15 310.62 554.92C319.06 556.26 331.34 562.4 331.34 565.28C331.34 566.05 334.41 566.43 338.25 566.05C344.58 565.28 346.11 566.24 357.43 577.75C364.14 584.66 369.71 591.37 369.71 592.52C369.71 593.67 364.91 596.74 358.97 599.43L348.23 604.23L341.9 600.2C338.45 598.09 334.42 595.02 333.08 593.3C331.74 591.77 328.86 589.46 326.75 588.31C324.45 587.16 326.56 590.23 331.16 595.02C345.93 610.36 338.83 612.86 305.26 603.84C297.97 601.92 288 600.19 283.2 600.39C275.33 600.39 275.72 600.77 289.72 604.23C297.97 606.15 306.41 608.64 308.33 609.79C312.36 611.9 313.51 615.54 310.06 615.54C307.37 615.54 288.77 623.6 289.73 624.36C289.92 624.74 297.21 622.82 305.46 620.33C313.9 617.65 324.83 615.54 330.01 615.54C335 615.54 346.31 613.05 355.71 609.79C364.72 606.53 373.93 604.04 376.04 604.04C380.84 604.04 398.29 615.93 422.46 635.69C447.59 656.21 464.85 674.82 467.73 684.41C469.26 689.59 469.65 706.47 468.88 740.42C467.92 791.06 466.77 802.76 451.23 915.36C447.59 942.02 444.13 967.34 443.56 971.95L442.4 980H503.2H563.82L562.67 975.59C559.79 965.81 555.77 917.28 553.85 871.24C549.25 758.07 548.1 745.41 539.27 699.37C533.71 669.64 533.13 659.86 536.78 657.55C541 654.86 541.96 655.44 545.03 661C547.14 664.84 547.91 665.41 548.1 662.92C548.1 661.19 549.44 659.66 551.17 659.66C555.77 659.66 552.32 655.82 545.03 652.76C541.39 651.23 538.51 649.11 538.51 648.16C538.51 647.21 541 643.56 543.88 640.3C550.78 632.43 557.12 633.59 563.83 643.75C569.97 653.15 578.22 661.21 584.93 664.66C591.45 668.11 607.95 671.37 606.41 669.07C605.83 668.11 604.3 667.34 603.15 667.34C595.09 667.34 585.89 662.35 578.02 654.3C564.98 640.49 557.69 630.71 558.84 628.59C559.99 626.67 575.34 627.44 595.86 630.13C601.61 630.9 603.92 630.71 602.96 629.36C602.19 628.21 600.66 627.63 599.32 628.02C597.98 628.59 592.8 627.83 587.43 626.49L577.84 623.8L585.51 619.96C589.73 617.66 594.91 614.01 597.02 611.71L600.86 607.3L595.49 610.75C592.61 612.67 588.58 613.63 586.09 613.05C583.6 612.28 581.1 613.05 579.76 614.78C577.07 618.42 563.07 621.69 560.77 619.38C559.62 618.23 560.39 615.93 562.88 613.24C567.1 608.64 569.98 603.46 573.05 595.59C575.73 588.3 574.01 589.45 568.64 598.85C565.95 603.45 560.01 610.55 555.4 614.77C548.69 620.72 547.15 621.48 546.58 618.8C546.2 616.5 544.28 618.61 541.21 624.75C536.03 635.11 529.7 642.01 527.4 639.71C526.63 638.94 526.06 624.37 526.06 607.29C526.06 577.94 526.25 575.64 530.85 566.62L535.64 557.03L552.14 556.45C580.91 555.49 607.19 563.36 624.27 578.13C633.67 586.19 648.82 614.96 651.7 630.69C653.81 642.39 655.54 645.46 655.54 637.98C655.54 631.84 657.46 631.46 662.44 636.83C667.62 642.58 674.14 645.46 684.88 647C696.01 648.72 728.42 646.42 728.42 644.12C728.42 643.16 719.02 642.39 707.32 642.39C693.13 642.39 686.22 641.62 686.22 640.28C686.22 638.17 701.38 623.21 703.48 623.21C704.06 623.21 710 617.84 716.91 611.51C731.87 597.31 727.08 599.23 707.51 615.35C699.65 621.68 692.55 626.48 691.97 626.09C691.2 625.51 690.05 622.64 689.48 619.38C688.71 616.31 687.37 613.63 686.22 613.63C685.07 613.63 685.07 615.36 686.41 618.81C690.25 628.98 683.53 638.57 674.52 635.69C668.96 633.77 660.32 619.39 654.57 602.12C651.88 593.87 646.71 582.36 643.06 576.42C639.61 570.47 637.31 565.29 638.26 564.72C640.18 563.57 653.8 568.17 659.93 572.39C663.58 574.69 664.92 574.88 665.49 572.96C666.26 571.04 668.17 571.23 674.31 573.73C680.64 576.22 682.37 576.42 682.37 574.31C682.37 572.97 684.29 571.24 686.78 570.47C690.04 569.32 688.31 568.74 679.49 567.79C668.36 566.64 659.16 563.19 659.35 560.31C659.54 558.01 684.86 542.66 688.7 542.66C690.62 542.66 694.07 543.62 696.37 544.77C699.44 546.5 700.59 546.5 701.17 544.77C701.55 543.62 704.81 542.66 708.46 542.66C712.49 542.66 714.79 541.89 714.02 540.74C713.44 539.59 707.88 538.82 701.74 538.82C688.51 538.82 685.25 536.52 688.89 529.42C690.42 526.73 693.49 522.71 695.79 520.59C698.09 518.48 700.78 515.22 701.93 513.11C703.85 509.66 703.66 509.66 699.44 512.73C696.94 514.46 693.49 515.8 691.77 515.8C689.85 515.8 687.93 517.91 687.36 520.79C685.83 526.93 670.1 543.81 662.23 547.83C658.2 549.94 651.1 550.9 638.25 550.9C621.95 550.9 618.49 550.32 605.64 544.76C597.77 541.31 582.62 536.32 572.07 533.83C561.52 531.14 552.31 528.27 551.54 527.69C550.77 526.92 561.13 512.73 574.37 495.85L598.54 465.54L607.94 466.31C623.29 467.85 624.44 470.15 619.45 490.48C614.85 509.09 614.27 513.88 616.96 513.88C618.11 513.88 619.45 509.85 620.03 504.86C621.76 492.78 624.63 483.57 627.13 482.03C629.81 480.3 636.34 488.17 636.34 492.97C636.34 497.96 644.78 514.26 649 517.91C652.07 520.21 652.26 520.21 650.73 517.72C649.96 516.19 648.24 513.5 646.89 511.97C645.55 510.43 643.44 504.68 642.1 499.5C640.76 494.13 637.11 485.31 634.24 479.55C631.17 473.8 628.87 469 629.25 468.81C629.44 468.43 639.22 466.51 650.73 464.21C666.46 461.14 676.24 458.07 689.09 451.55C698.68 446.76 708.85 442.92 711.53 442.92C718.82 442.92 744.71 461.14 754.5 473.04C763.9 484.55 767.74 496.44 769.46 519.46C770.23 529.24 772.34 539.22 774.64 544.4C777.14 550.34 778.09 555.53 777.52 559.94C776.56 565.31 776.75 565.89 778.29 562.24C780.59 556.87 781.55 556.87 792.29 563.78C797.28 566.85 801.88 569.53 802.65 569.53C803.22 569.53 800.54 566.85 796.51 563.78C792.48 560.52 788.45 558.03 787.69 558.03C786.73 558.03 783.47 554.58 780.4 550.17C774.84 542.69 770.23 523.12 773.3 520.25C773.88 519.48 776.75 521.02 779.63 523.7L784.81 528.3L779.82 522.16C776.75 518.32 773.68 510.65 771.57 501.06C769.65 492.81 766.58 483.03 764.66 479.19L761.21 472.09L778.86 478.42C793.63 483.6 798.24 486.28 806.48 494.34C812.04 499.9 818.18 507.58 820.29 511.41C822.4 515.44 824.13 517.36 824.32 515.82C824.32 513.14 818.57 504.12 807.44 489.16L803.03 483.41L810.32 481.68C814.35 480.53 821.45 478.8 826.24 477.84C834.87 475.73 834.87 475.73 827.2 476.69C798.04 479.95 790.75 479.76 779.82 475.73C773.87 473.43 766.59 469.78 763.9 467.48C758.91 463.64 758.72 463.26 762.17 460.77C765.24 458.47 765.05 458.28 759.1 458.28C752 458.28 732.24 447.54 720.74 437.37L714.03 431.42L727.27 418.95C742.23 404.76 752.01 400.73 771.77 400.73C794.98 400.73 813.78 406.87 827.78 418.95C834.88 425.09 837.37 426.05 846.96 426.62L857.89 427.2L848.88 424.71C837.93 421.81 821.81 412.6 823.35 410.3C824.69 408.19 853.47 416.05 864.59 421.81C869.38 424.11 877.06 428.72 881.85 431.78L890.48 437.34L882.81 430.43C878.59 426.79 869.57 420.84 862.67 417.58C850.39 411.44 850.39 411.44 855.96 410.1C868.04 407.41 874.37 408.18 880.51 413.36C886.07 418.16 907.17 429.47 910.05 429.47C910.82 429.47 906.6 426.59 900.46 422.95C889.33 416.62 879.94 408.95 879.94 406.26C879.94 403.96 886.27 401.08 897.59 398.01C904.49 396.09 906.22 395.13 902.58 395.13C899.7 394.94 890.69 397.05 882.44 399.73C874.38 402.22 867.29 403.95 866.71 403.37C866.33 402.99 868.82 399.34 872.46 395.31C876.11 391.28 874.76 392.24 869.01 397.61L859.03 407.01L844.06 405.7C835.81 405.12 820.08 402.25 808.96 399.75C797.83 397.06 781.91 394.38 773.47 393.8C751.41 392.07 750.84 391.12 765.22 380.95C786.89 365.41 797.25 364.26 817.97 374.81C825.07 378.45 828.9 379.99 826.22 378.26C823.53 376.34 818.55 372.12 814.9 368.86L808.57 363.11L813.75 359.66C816.63 357.74 822 355.06 825.83 353.71C829.86 352.18 831.58 351.02 829.86 351.02C827.94 350.83 820.65 353.32 813.56 356.39C806.27 359.46 795.53 362.91 789.77 363.87C784.02 365.02 775.19 367.71 770.21 369.82C765.03 371.93 761 373.27 761 372.7C761 372.12 762.92 368.86 765.22 365.6C767.52 362.34 768.29 360.42 767.14 361.19C765.8 361.96 761.19 367.52 756.78 373.47C746.81 386.9 728.97 404.55 724.94 404.55C718.99 404.55 726.86 361.58 734.34 353.14C736.83 350.45 737.41 349.11 735.68 350.65C731.65 353.72 728.97 352.19 725.9 344.9C723.79 339.53 723.6 340.49 723.6 354.49C723.6 373.29 721.68 375.97 712.09 371.37C702.69 366.96 701.73 367.34 709.4 372.52C713.05 374.82 715.92 378.08 715.92 379.62C715.92 381.16 715.15 390.17 714.19 399.76C712.66 416.83 712.66 417.02 703.64 426.23C690.8 439.84 667.4 450.58 650.71 450.58H645.15L655.51 439.65C661.26 433.7 663.18 431.21 659.54 434.09C653.02 439.46 649.18 439.46 653.59 434.28C655.7 431.79 655.51 431.6 652.82 432.55C651.09 433.13 649.75 434.28 649.75 435.04C649.75 435.62 646.49 439.84 642.27 444.44C635.56 451.73 634.02 452.5 626.16 452.5C621.36 452.5 616.18 451.92 614.46 451.35C610.82 450.01 610.43 441.76 613.5 433.89C614.65 431.01 616.38 412.98 617.15 393.8C619.26 342.2 619.45 342.01 668.36 317.65L693.68 304.8L714.4 314.58C744.13 328.58 747.01 329.35 775.4 331.84C798.61 333.76 801.49 333.57 805.52 330.69C809.55 327.62 809.74 327.62 805.9 328.58C801.87 329.73 761.2 326.85 751.04 324.74C747.97 324.16 745.67 323.01 745.67 322.44C745.67 320.71 772.91 311.12 782.12 309.59C787.11 308.63 789.02 307.29 789.02 304.79C789.02 302.49 788.25 301.72 786.91 302.68C785.95 303.64 775.02 307.48 762.93 311.5C742.98 317.83 740.1 318.41 733.2 316.29C725.72 314.18 701.55 301.52 701.55 299.99C701.55 299.41 706.92 292.51 713.63 284.26C720.15 276.01 727.06 267.19 728.79 264.69C731.86 260.28 732.43 260.09 740.11 262.39C744.52 263.73 759.48 265.27 773.3 265.84C804.37 267.18 809.75 269.29 828.93 287.32C844.85 302.47 850.99 305.73 837.75 292.11L829.12 283.48L843.51 284.63C852.14 285.4 860.2 287.51 863.65 289.62C877.46 298.06 880.72 299.21 893 299.98L905.85 300.94L890.89 298.25C875.35 295.37 865.76 290.77 866.91 286.93C867.29 285.59 872.47 282.33 878.23 279.45C890.7 273.31 888.59 272.55 873.05 278.11C866.72 280.41 856.36 282.14 849.26 282.33C838.71 282.71 835.26 281.75 826.82 277.15C821.45 274.08 814.74 269.28 811.86 266.41L806.87 261.23L818.95 250.1C836.98 233.8 842.54 231.49 870.36 228.81C889.35 227.08 891.65 226.51 881.87 226.51C870.17 226.32 851.18 228.43 839.29 231.11C834.11 232.26 833.92 232.07 833.92 224.97C833.92 219.41 833.34 218.26 832 220.37C831.04 221.9 830.08 225.74 830.08 228.62C830.08 232.84 826.82 237.44 817.23 247.61L804.19 261.04L777.34 260.27C747.99 259.5 738.59 257.01 739.55 250.1C740.13 245.5 761.8 202.53 767.36 194.66C772.54 187.18 792.87 177.97 806.68 176.82C819.15 175.67 834.49 179.31 849.84 187.18C855.02 189.67 859.62 191.4 860.01 191.02C860.59 190.64 858.29 189.1 855.22 187.76C846.78 184.31 843.71 180.28 847.74 177.98C849.47 177.02 852.92 173.38 855.22 169.93C859.25 163.98 859.06 164.18 851.58 171.27L843.52 178.94L830.67 176.26C811.68 172.62 811.87 172.81 818.01 166.09L823.38 160.34L817.63 164.37C811.3 168.97 780.03 182.02 775.43 182.02C773.9 182.02 772.55 181.06 772.55 179.72C772.55 177.04 785.4 153.82 787.9 152.29C789.05 151.71 789.82 149.61 789.82 147.69C789.82 144.24 803.82 122.95 817.06 106.26L824.73 96.67L815.71 106.26C803.24 119.69 783.1 149.99 768.71 177.81L756.24 201.4L754.9 185.48C754.13 176.85 752.6 165.72 751.45 160.74C749.15 151.72 749.34 151.53 755.67 145.59C759.12 142.52 764.3 139.26 767.18 138.68C770.06 137.91 773.51 136.19 774.66 134.65C776.58 132.54 776.2 132.35 771.78 134.07C768.9 135.03 766.22 135.99 765.64 135.99C765.26 135.99 764.68 131.96 764.68 126.78C764.49 121.79 763.72 115.08 762.95 112.01C761.8 107.79 761.42 110.09 761.22 120.83C761.03 134.45 760.64 135.79 754.51 142.89L747.99 150.37L742.81 145.57C735.52 138.86 730.15 130.99 727.27 122.74C725.16 116.79 724.77 116.6 724.58 120.63C724.58 125.81 728.22 132.71 738.58 146.14C744.72 154.2 749.32 165.71 747.21 167.82C746.06 168.78 722.27 151.13 713.64 143.08C710.19 139.82 707.31 138.09 707.31 139.24C707.31 141.35 739.73 168.01 747.21 172.23C749.9 173.77 750.47 177.03 750.09 192.56C749.9 208.67 749.13 212.51 743.76 223.63C726.88 260.08 700.6 289.81 674.13 302.85C665.11 307.45 656.48 310.52 654.95 309.95C653.42 309.37 651.11 304.39 649.77 298.82C647.47 289.23 647.47 288.65 651.5 285.39L655.72 281.94L650.35 281.36C645.94 280.98 644.79 279.83 644.4 274.65C643.25 263.14 658.59 242.81 674.32 234.75C677.97 233.02 680.46 231.11 679.88 230.72C679.31 230.14 675.47 231.49 671.06 233.6C666.84 235.9 662.81 237.63 662.24 237.63C660.13 237.63 661.47 229.57 664.35 224.97C666.08 222.48 667.04 219.79 666.46 219.22C665.12 217.69 660.13 227.47 658.59 234.76C657.82 237.83 654.37 244.16 650.73 248.76C647.28 253.36 644.02 257.97 643.63 259.12C641.91 263.92 636.34 258.35 633.66 249.72C631.94 244.16 630.78 242.24 630.78 244.92C630.59 247.22 631.93 252.21 633.47 256.05C635 259.69 637.12 268.13 638.27 274.66C639.42 281.18 641.72 291.92 643.26 298.25C645.18 305.54 645.76 311.29 644.8 313.02C643.84 314.56 637.51 319.73 630.6 324.34C623.69 328.94 615.83 336.23 612.76 340.84C609.69 345.44 606.81 348.7 606.43 348.32C606.05 347.94 603.17 339.5 600.1 329.52C597.03 319.55 592.24 305.16 589.36 297.3C582.84 279.08 583.8 271.98 595.5 251.84C600.29 243.59 606.62 230.36 609.31 222.3C614.11 208.3 614.49 207.91 624.85 202.93C630.6 200.05 639.43 194.3 644.22 189.89C653.05 182.22 653.24 182.02 657.65 185.67C665.52 191.81 677.98 197.18 686.62 198.33L694.87 199.48L688.35 196.41C684.9 194.88 679.72 193.53 677.22 193.53C673.77 193.53 672.62 192.76 673.58 190.65C674.35 188.54 673.39 187.77 670.13 187.77C663.61 187.77 657.47 180.1 657.47 172.23C657.47 162.45 664.76 122.93 668.21 113.53C670.13 108.16 675.31 101.64 682.98 94.54C694.49 83.9901 694.49 83.8 685.86 89.75C672.63 98.57 661.31 115.07 661.31 125.43C661.31 128.12 660.54 130.23 659.39 130.23C655.55 130.23 641.55 106.44 637.14 92.83L634.65 85.16V91.5C634.46 95.53 638.29 104.93 645.2 118.35C655.37 137.72 655.94 139.45 654.98 149.43C653.64 164.58 646.92 178.97 637.14 187.41C629.27 194.32 616.04 200.26 614.5 197.77C614.12 197 612.39 189.14 610.66 180.12C608.94 171.1 605.29 155.95 602.41 146.55C598 132.16 597.04 125.83 597.23 109.14C597.23 98.01 596.65 91.11 595.89 93.79C595.12 96.48 594.55 104.92 594.35 112.4C594.16 120.07 593.39 126.4 592.43 126.4C589.75 126.4 574.01 107.03 569.6 98.4C565.57 90.34 557.71 51.79 557.71 39.7C557.71 36.06 559.43 29.92 561.35 26.08C563.46 21.86 564.04 19.75 562.5 20.9C561.16 22.05 559.05 25.5 557.71 28.57C555.41 34.32 551.96 36.44 551.96 32.02C551.96 30.87 551.58 30.29 551 30.68C550.62 31.2599 551.77 36.82 553.68 43.15C557.13 53.7 562.89 90.72 561.93 94.5599C561.55 95.33 566.53 102.23 572.67 109.91C600.67 144.05 603.94 152.11 605.28 189.9C606.05 216.75 605.86 218.48 601.44 228.26C598.75 234.01 593 244.18 588.78 250.89C584.37 257.6 580.72 264.7 580.72 266.62C580.72 268.54 579.95 270.46 578.8 271.22C575.16 273.52 570.74 259.71 567.1 233.24C564.8 218.28 560.58 198.33 557.51 188.93C554.44 179.53 551.95 171.09 551.95 169.94C551.95 168.79 556.55 163.61 562.12 158.43C569.79 150.95 570.56 149.8 565.38 153.25C561.74 155.74 556.37 159.77 553.49 162.46L548.5 167.06L546.2 162.84C544.86 160.35 543.32 153.44 542.94 147.3C542.36 140.97 541.02 135.98 540.25 135.98C539.29 135.98 538.52 137.71 538.52 139.82C538.52 143.85 534.87 145.19 534.49 141.16C534.49 140.01 532.76 135.41 530.65 131.18C528.73 126.96 527.58 125.62 528.16 128.3C528.93 130.99 532.19 139.23 535.83 146.91C539.28 154.58 545.42 168.78 549.26 178.56C553.1 188.34 556.74 197.74 557.32 199.28C557.89 200.81 553.48 197.55 547.35 191.99C541.21 186.43 532.58 180.1 528.55 177.99C517.42 172.24 521.45 176.84 533.54 183.74C551.96 194.1 558.67 206.95 561.55 238.03C562.89 251.46 565.19 261.82 569.99 274.48C573.64 284.26 576.51 292.51 576.13 292.7C575.94 293.08 569.42 287.9 561.74 281.57C554.26 275.05 547.55 270.06 547.16 270.64C546.2 271.6 551.76 277.35 568.45 292.12C573.82 296.92 580.34 304.97 583.22 309.96C594.15 330.29 601.06 372.3 599.53 409.71C598.38 439.06 594.73 446.16 565.39 479.34C530.86 518.28 517.05 539.76 506.89 570.45C502.48 583.88 501.71 590.02 500.75 619.36C499.79 651.58 497.87 667.31 494.8 667.31C493.84 667.31 491.73 659.25 489.81 649.47C484.82 623 474.66 594.23 460.65 568.14C444.7 538.05 444.7 535.56 459.09 512.73C465.23 503.33 474.44 488.37 479.81 479.35C491.32 459.78 503.21 447.7 517.6 440.41C527.96 435.23 528.34 435.23 536.4 438.11C546.18 441.56 546.18 441.56 546.18 439.26C546.18 438.3 543.49 437.15 540.23 436.38C532.17 434.84 533.71 431.97 547.71 422.76C556.53 417.01 559.41 413.94 559.6 410.29C559.6 407.6 560.94 403.38 562.48 400.7C564.01 398.01 565.16 394.56 565.16 393.03C565.35 391.5 563.63 393.61 561.71 397.83C557.49 407.23 545.79 418.16 532.94 424.68C520.86 430.63 520.47 430.63 523.92 424.1C525.46 421.22 528.52 412.78 530.83 405.11C534.67 392.45 539.27 383.82 550.2 369.05C553.84 364.06 553.46 364.26 546.94 370.58C542.72 374.42 536.77 381.9 533.71 387.27C530.45 392.45 527.19 396.48 526.04 396.29C525.08 395.91 523.55 391.88 522.78 387.08C522.2 382.48 522.01 386.12 522.59 395.14C523.17 407.99 522.78 413.17 520.48 417.77C516.84 424.48 510.31 428.9 507.44 426.02C503.99 422.57 499.96 402.04 498.42 379.79C497.46 366.94 495.73 355.62 494.2 353.32C492.09 349.68 492.09 348.14 494.97 342.39C498.62 334.33 505.71 330.5 518.76 328.58C529.31 327.24 534.49 324.94 532.19 322.83C531.42 322.06 529.69 322.45 528.55 323.6C525.1 327.05 506.3 326.67 505.53 323.02C505.15 321.29 501.5 324.94 496.51 332.61C491.91 339.52 487.49 345.08 486.73 345.08C486.15 345.08 481.93 341.24 477.33 336.64L468.89 328.01L473.88 319.76C480.4 308.63 494.98 295.21 500.73 295.21C503.22 295.21 506.87 293.87 508.98 292.14C512.43 289.45 512.43 289.26 509.17 290.22C499.58 293.29 496.13 293.48 493.44 291.37C491.91 290.03 490.56 289.84 490.56 290.79C490.56 293.09 469.65 320.9 467.35 321.67C466.58 322.05 465.24 320.14 464.47 317.26C462.17 308.05 465.05 293.86 471.95 278.9C479.43 263.36 481.54 254.92 475.21 266.43C468.5 278.71 459.86 302.68 459.86 309.01C460.05 318.41 465.61 328.96 479.81 345.84C491.13 359.46 492.47 361.95 492.47 369.43C492.47 374.03 491.7 377.68 490.74 377.68C486.9 377.68 464.46 350.44 458.51 338.93C451.99 326.08 449.69 327.23 456.02 340.27C458.13 344.49 459.66 349.09 459.86 350.44C459.86 351.98 465.42 358.5 472.14 365.02C485.95 378.64 489.79 386.89 496.88 418.92L501.48 438.87L489.59 448.27L477.7 457.86L466.95 436.2L456.21 414.52L460.43 410.68C462.73 408.57 467.72 405.5 471.36 403.97C475.2 402.24 476.73 400.9 474.81 400.9C472.7 400.71 471.36 399.17 471.36 396.87C471.36 393.42 470.4 393.99 465.41 399.75C462.15 403.39 458.7 406.46 457.74 406.46C455.25 406.46 451.79 390.92 452.94 384.98C453.71 381.34 453.32 379.8 451.98 380.76C450.83 381.34 447.76 379.8 445.07 377.5L440.27 372.9L444.3 380.96C446.41 385.37 448.33 389.97 448.33 391.13C448.33 394.2 442.58 393.43 435.67 389.02C432.03 386.91 429.15 385.95 429.15 386.91C429.15 388.06 433.56 391.51 438.74 394.97C445.26 399.19 448.71 402.84 449.29 406.29C449.87 408.98 453.89 421.64 457.92 434.29C462.14 446.95 465.59 460.19 465.59 463.64C465.59 473.42 459.45 482.82 442 500.09L425.9 516.18L418.23 504.67C413.82 498.15 408.06 485.3 404.61 474.55C395.59 447.12 386.58 400.7 386.2 381.52C386.01 366.37 386.58 364.26 392.72 351.79C396.56 344.31 406.72 326.85 415.35 313.04C438.75 275.44 439.52 272.95 442.59 225.57C445.08 187.4 447.39 180.88 466.57 158.24C480.96 141.36 488.82 128.7 491.31 117.77C492.08 114.51 495.72 105.3 499.37 97.25C504.17 86.51 506.28 78.84 506.85 69.44C507.42 60.42 507.23 57.9301 506.08 61.19C505.12 63.88 504.36 69.4399 504.16 73.66C503.97 77.8799 501.67 86.1299 498.79 91.8799L493.8 102.43L492.46 96.68C491.69 93.42 490.93 79.42 490.73 65.6L490.54 40.09L500.32 29.16C505.69 23.02 512.21 16.12 514.9 13.62C517.39 11.32 518.54 9.39996 517.39 9.39996C516.24 9.39996 510.48 13.9999 504.73 19.7599C498.98 25.5099 494.37 29.54 494.37 28.78C494.37 27.8199 496.48 22.2599 499.17 16.3099C503.97 5.17993 504.35 1.53998 499.55 10.75L496.67 15.93L492.64 7.87C487.28 -2.87 485.56 -2.48999 490.93 8.25Z" fill="#E3EB86"/>
<path d="M569 12.47L564.4 17.46L569.77 14.97C572.65 13.63 574.95 11.52 574.95 9.97999C574.94 6.51999 574.37 6.72003 569 12.47Z" fill="#E3EB86"/>
<path d="M661.26 40.09C657.62 43.35 651.86 46.42 648.22 47C640.74 48.34 637.09 54.86 635.37 69.25L634.41 77.5L636.9 68.87C640.16 56.98 641.69 54.87 651.86 49.11C656.65 46.23 662.6 41.82 665.1 39.14C671.04 32.8 669.51 33.19 661.26 40.09Z" fill="#E3EB86"/>
<path d="M594.7 81.53C595.85 85.37 597.19 87.48 597.58 86.32C598.73 83.06 596.24 74.62 594.32 74.62C593.36 74.62 593.55 77.69 594.7 81.53Z" fill="#E3EB86"/>
<path d="M690.03 187.79C686.39 190.86 684.28 193.35 685.43 193.54C686.39 193.54 689.84 190.86 692.91 187.79C700.01 180.5 698.48 180.31 690.03 187.79Z" fill="#E3EB86"/>
<path d="M850.78 323.41C852.12 323.98 853.85 323.79 854.43 323.22C855.2 322.64 854.05 322.07 851.94 322.26C849.82 322.26 849.24 322.83 850.78 323.41Z" fill="#E3EB86"/>
<path d="M832.94 326.86C828.72 328.39 821.05 330.7 815.68 332.42L806.09 335.3L815.68 334.15C825.66 333 851.17 324.18 844.45 324.18C842.34 324.37 837.16 325.52 832.94 326.86Z" fill="#E3EB86"/>
</g>
<defs>
<clipPath id="clip0">
<rect width="1000" height="1000" fill="white"/>
</clipPath>
</defs>
</svg>
