<svg width="238" height="67" viewBox="0 0 238 67" fill="none" xmlns="http://www.w3.org/2000/svg">
<g clip-path="url(#clip0)">
<path d="M79.981 18.8333C79.981 13.3432 72.4702 8.8927 63.2051 8.8927C62.6949 8.8927 62.1912 8.90841 61.6925 8.93484C57.8389 4.90305 50.5341 2.1817 42.1558 2.1817C33.7776 2.1817 26.4728 4.90305 22.6189 8.93484C22.1203 8.90841 21.6165 8.8927 21.1066 8.8927C11.8415 8.8927 4.33066 13.3432 4.33066 18.8333C4.33066 21.5187 6.13073 23.9536 9.05113 25.7424C7.29545 27.6381 6.29636 29.8145 6.29636 32.1294C6.29636 39.4726 16.3426 45.4256 28.7351 45.4256C30.8991 45.4256 32.9907 45.243 34.9706 44.9042V65.2491H30.2512C28.4184 65.2491 26.9328 66.1295 26.9328 67.2154C26.9328 68.3014 28.4187 69.1817 30.2512 69.1817H54.0603C55.893 69.1817 57.3786 68.3013 57.3786 67.2154C57.3786 66.1294 55.8928 65.2491 54.0603 65.2491H49.3409V44.9042C51.3207 45.243 53.4123 45.4256 55.5763 45.4256C67.9688 45.4256 78.0151 39.4728 78.0151 32.1294C78.0151 29.8145 77.0158 27.6381 75.2603 25.7424C78.1807 23.9536 79.981 21.5187 79.981 18.8333Z" fill="#E3EB86"/>
<g clip-path="url(#clip1)">
<path d="M36.038 25.2412C34.4013 24.2429 32.3612 23.6436 30.1414 23.6436C24.7702 23.6436 20.4159 27.114 20.4159 31.3949V36.176C20.4159 36.7364 20.9854 37.1902 21.6884 37.1902H31.9514V32.3009C31.9514 29.4786 33.5414 26.9497 36.038 25.2412Z" fill="#55973E"/>
<path d="M30.1414 22.3396C33.8061 22.3396 36.7764 19.9721 36.7764 17.0513C36.7764 14.1304 33.8061 11.763 30.1414 11.763C26.4766 11.763 23.5063 14.1304 23.5063 17.0513C23.5063 19.9722 26.4766 22.3396 30.1414 22.3396Z" fill="#55973E"/>
<path d="M43.6345 25.3073C38.789 25.3073 34.8599 28.4388 34.8599 32.3008V36.176C34.8599 36.7363 35.4294 37.1901 36.1323 37.1901H39.8667H46.2122V33.0332C46.2122 30.6851 47.4534 28.5672 49.4324 27.0613C47.8859 25.973 45.86 25.3073 43.6345 25.3073Z" fill="#55973E"/>
<path d="M40.393 23.3616C41.3282 23.8439 42.4374 24.1308 43.6345 24.1308C44.8318 24.1308 45.941 23.844 46.8768 23.3616C48.525 22.5116 49.6213 21.0407 49.6213 19.3599C49.6213 16.7242 46.9414 14.5883 43.6345 14.5883C40.3284 14.5883 37.6485 16.7242 37.6485 19.3599C37.6485 21.0407 38.7449 22.5116 40.393 23.3616Z" fill="#55973E"/>
<path d="M56.5824 27.0862C52.4611 27.0862 49.1208 29.749 49.1208 33.0332V36.176C49.1208 36.7363 49.6903 37.1901 50.3933 37.1901H52.41H62.7716C63.4746 37.1901 64.0441 36.7363 64.0441 36.176V33.0332C64.0441 29.749 60.7031 27.0862 56.5824 27.0862Z" fill="#55973E"/>
<path d="M53.3992 25.1705C54.2733 25.7335 55.371 26.085 56.5824 26.085C57.7945 26.085 58.8923 25.7335 59.7665 25.1705C60.9204 24.4269 61.673 23.3034 61.673 22.0282C61.673 19.7872 59.3943 17.9704 56.5824 17.9704C53.7711 17.9704 51.4918 19.7872 51.4918 22.0282C51.4918 23.3034 52.2444 24.4269 53.3992 25.1705Z" fill="#55973E"/>
</g>
</g>
<path d="M117.304 29.272V31.048H110.032V36.688H115.936V38.464H110.032V46H107.848V29.272H117.304ZM119.126 39.376C119.126 38.032 119.398 36.856 119.942 35.848C120.486 34.824 121.23 34.032 122.174 33.472C123.134 32.912 124.198 32.632 125.366 32.632C126.518 32.632 127.518 32.88 128.366 33.376C129.214 33.872 129.846 34.496 130.262 35.248V32.848H132.47V46H130.262V43.552C129.83 44.32 129.182 44.96 128.318 45.472C127.47 45.968 126.478 46.216 125.342 46.216C124.174 46.216 123.118 45.928 122.174 45.352C121.23 44.776 120.486 43.968 119.942 42.928C119.398 41.888 119.126 40.704 119.126 39.376ZM130.262 39.4C130.262 38.408 130.062 37.544 129.662 36.808C129.262 36.072 128.718 35.512 128.03 35.128C127.358 34.728 126.614 34.528 125.798 34.528C124.982 34.528 124.238 34.72 123.566 35.104C122.894 35.488 122.358 36.048 121.958 36.784C121.558 37.52 121.358 38.384 121.358 39.376C121.358 40.384 121.558 41.264 121.958 42.016C122.358 42.752 122.894 43.32 123.566 43.72C124.238 44.104 124.982 44.296 125.798 44.296C126.614 44.296 127.358 44.104 128.03 43.72C128.718 43.32 129.262 42.752 129.662 42.016C130.062 41.264 130.262 40.392 130.262 39.4ZM151.977 32.608C153.001 32.608 153.913 32.824 154.713 33.256C155.513 33.672 156.145 34.304 156.609 35.152C157.073 36 157.305 37.032 157.305 38.248V46H155.145V38.56C155.145 37.248 154.817 36.248 154.161 35.56C153.521 34.856 152.649 34.504 151.545 34.504C150.409 34.504 149.505 34.872 148.833 35.608C148.161 36.328 147.825 37.376 147.825 38.752V46H145.665V38.56C145.665 37.248 145.337 36.248 144.681 35.56C144.041 34.856 143.169 34.504 142.065 34.504C140.929 34.504 140.025 34.872 139.353 35.608C138.681 36.328 138.345 37.376 138.345 38.752V46H136.161V32.848H138.345V34.744C138.777 34.056 139.353 33.528 140.073 33.16C140.809 32.792 141.617 32.608 142.497 32.608C143.601 32.608 144.577 32.856 145.425 33.352C146.273 33.848 146.905 34.576 147.321 35.536C147.689 34.608 148.297 33.888 149.145 33.376C149.993 32.864 150.937 32.608 151.977 32.608ZM176.742 29.272V31.048H169.47V36.688H175.374V38.464H169.47V46H167.286V29.272H176.742ZM185.115 46.216C183.883 46.216 182.763 45.936 181.755 45.376C180.763 44.816 179.979 44.024 179.403 43C178.843 41.96 178.563 40.76 178.563 39.4C178.563 38.056 178.851 36.872 179.427 35.848C180.019 34.808 180.819 34.016 181.827 33.472C182.835 32.912 183.963 32.632 185.211 32.632C186.459 32.632 187.587 32.912 188.595 33.472C189.603 34.016 190.395 34.8 190.971 35.824C191.563 36.848 191.859 38.04 191.859 39.4C191.859 40.76 191.555 41.96 190.947 43C190.355 44.024 189.547 44.816 188.523 45.376C187.499 45.936 186.363 46.216 185.115 46.216ZM185.115 44.296C185.899 44.296 186.635 44.112 187.323 43.744C188.011 43.376 188.563 42.824 188.979 42.088C189.411 41.352 189.627 40.456 189.627 39.4C189.627 38.344 189.419 37.448 189.003 36.712C188.587 35.976 188.043 35.432 187.371 35.08C186.699 34.712 185.971 34.528 185.187 34.528C184.387 34.528 183.651 34.712 182.979 35.08C182.323 35.432 181.795 35.976 181.395 36.712C180.995 37.448 180.795 38.344 180.795 39.4C180.795 40.472 180.987 41.376 181.371 42.112C181.771 42.848 182.299 43.4 182.955 43.768C183.611 44.12 184.331 44.296 185.115 44.296ZM196.915 34.984C197.299 34.232 197.843 33.648 198.547 33.232C199.267 32.816 200.139 32.608 201.163 32.608V34.864H200.587C198.139 34.864 196.915 36.192 196.915 38.848V46H194.731V32.848H196.915V34.984ZM215.684 38.92C215.684 39.336 215.66 39.776 215.612 40.24H205.1C205.18 41.536 205.62 42.552 206.42 43.288C207.236 44.008 208.22 44.368 209.372 44.368C210.316 44.368 211.1 44.152 211.724 43.72C212.364 43.272 212.812 42.68 213.068 41.944H215.42C215.068 43.208 214.364 44.24 213.308 45.04C212.252 45.824 210.94 46.216 209.372 46.216C208.124 46.216 207.004 45.936 206.012 45.376C205.036 44.816 204.268 44.024 203.708 43C203.148 41.96 202.868 40.76 202.868 39.4C202.868 38.04 203.14 36.848 203.684 35.824C204.228 34.8 204.988 34.016 205.964 33.472C206.956 32.912 208.092 32.632 209.372 32.632C210.62 32.632 211.724 32.904 212.684 33.448C213.644 33.992 214.38 34.744 214.892 35.704C215.42 36.648 215.684 37.72 215.684 38.92ZM213.428 38.464C213.428 37.632 213.244 36.92 212.876 36.328C212.508 35.72 212.004 35.264 211.364 34.96C210.74 34.64 210.044 34.48 209.276 34.48C208.172 34.48 207.228 34.832 206.444 35.536C205.676 36.24 205.236 37.216 205.124 38.464H213.428ZM223.223 46.216C222.215 46.216 221.311 46.048 220.511 45.712C219.711 45.36 219.079 44.88 218.615 44.272C218.151 43.648 217.895 42.936 217.847 42.136H220.103C220.167 42.792 220.471 43.328 221.015 43.744C221.575 44.16 222.303 44.368 223.199 44.368C224.031 44.368 224.687 44.184 225.167 43.816C225.647 43.448 225.887 42.984 225.887 42.424C225.887 41.848 225.631 41.424 225.119 41.152C224.607 40.864 223.815 40.584 222.743 40.312C221.767 40.056 220.967 39.8 220.343 39.544C219.735 39.272 219.207 38.88 218.759 38.368C218.327 37.84 218.111 37.152 218.111 36.304C218.111 35.632 218.311 35.016 218.711 34.456C219.111 33.896 219.679 33.456 220.415 33.136C221.151 32.8 221.991 32.632 222.935 32.632C224.391 32.632 225.567 33 226.463 33.736C227.359 34.472 227.839 35.48 227.903 36.76H225.719C225.671 36.072 225.391 35.52 224.879 35.104C224.383 34.688 223.711 34.48 222.863 34.48C222.079 34.48 221.455 34.648 220.991 34.984C220.527 35.32 220.295 35.76 220.295 36.304C220.295 36.736 220.431 37.096 220.703 37.384C220.991 37.656 221.343 37.88 221.759 38.056C222.191 38.216 222.783 38.4 223.535 38.608C224.479 38.864 225.247 39.12 225.839 39.376C226.431 39.616 226.935 39.984 227.351 40.48C227.783 40.976 228.007 41.624 228.023 42.424C228.023 43.144 227.823 43.792 227.423 44.368C227.023 44.944 226.455 45.4 225.719 45.736C224.999 46.056 224.167 46.216 223.223 46.216ZM233.77 34.648V42.4C233.77 43.04 233.906 43.496 234.178 43.768C234.45 44.024 234.922 44.152 235.594 44.152H237.202V46H235.234C234.018 46 233.106 45.72 232.498 45.16C231.89 44.6 231.586 43.68 231.586 42.4V34.648H229.882V32.848H231.586V29.536H233.77V32.848H237.202V34.648H233.77Z" fill="#E3EB86"/>
<defs>
<clipPath id="clip0">
<rect width="83" height="67" fill="white"/>
</clipPath>
<clipPath id="clip1">
<rect x="20.4159" y="7.09052" width="43.6282" height="34.7721" rx="9" fill="white"/>
</clipPath>
</defs>
</svg>
