<svg width="125" height="122" viewBox="0 0 125 122" fill="none" xmlns="http://www.w3.org/2000/svg">
<g clip-path="url(#clip0)">
<path d="M66.1619 72.0145V50.119C71.3623 49.783 80.7093 48.2642 87.1586 41.9692C96.3272 33.0202 95.6092 18.3483 95.5742 17.7281C95.4715 15.9091 93.9835 14.4565 92.1195 14.3562C91.4845 14.3217 76.4515 13.6211 67.2828 22.5699C66.3072 23.522 65.4447 24.5395 64.6803 25.5972C63.337 20.3291 60.8127 14.4434 56.094 9.83799C45.1423 -0.850876 27.1204 -0.0104721 26.3589 0.0309881C24.4952 0.131303 23.0069 1.58384 22.9041 3.40285C22.8622 4.14651 22.0006 21.7359 32.9526 32.425C40.9761 40.256 52.7923 41.8984 58.8378 42.2008V72.0145C60.0505 71.8815 61.2731 71.8129 62.4999 71.8129C63.7269 71.8129 64.9493 71.8818 66.1619 72.0145Z" fill="#E3EB86"/>
<path d="M91.9178 93.3174C89.9484 93.3174 88.009 93.6238 86.164 94.2183C84.5095 90.4473 81.9109 87.0826 78.6043 84.489C74.06 80.9243 68.3406 78.9612 62.4999 78.9612C56.6594 78.9612 50.94 80.9243 46.3954 84.489C43.0889 87.0826 40.4903 90.4473 38.8358 94.2183C36.9908 93.6238 35.0512 93.3174 33.082 93.3174C22.9522 93.3174 14.7109 101.361 14.7109 111.248V118.426C14.7109 120.4 16.3506 122 18.373 122H106.627C108.649 122 110.289 120.4 110.289 118.426V111.248C110.289 101.361 102.048 93.3174 91.9178 93.3174Z" fill="#E3EB86"/>
</g>
<defs>
<clipPath id="clip0">
<rect width="125" height="122" fill="white"/>
</clipPath>
</defs>
</svg>
