<svg width="699" height="752" viewBox="0 0 699 752" fill="none" xmlns="http://www.w3.org/2000/svg">
<path d="M697.089 641.946L673.037 597.126C679.289 595.496 683.932 589.437 683.932 582.211C683.932 579.081 683.062 576.17 681.567 573.743L655.742 525.624C662.383 524.314 667.414 518.054 667.414 510.531C667.414 507.403 666.546 504.49 665.051 502.064L585.345 353.541C582.798 348.792 578.089 345.868 572.991 345.868C567.896 345.868 563.185 348.794 560.637 353.541L541.864 388.522L473.543 262.078C470.99 257.352 466.293 254.444 461.21 254.444C456.127 254.444 451.431 257.352 448.876 262.078L429.916 297.168L362.084 171.625C359.531 166.899 354.833 163.991 349.752 163.991C344.67 163.991 339.973 166.899 337.418 171.625L269.315 297.669L250.083 262.077C247.53 257.351 242.832 254.442 237.751 254.442C232.669 254.442 227.971 257.351 225.417 262.077L157.116 388.49L138.36 353.539C135.812 348.791 131.102 345.866 126.006 345.866C120.911 345.866 116.199 348.792 113.652 353.539L33.522 502.857C30.9745 507.605 30.9745 513.455 33.522 518.204C35.6272 522.127 39.2055 524.805 43.2589 525.618L17.0067 574.537C14.4592 579.285 14.4592 585.135 17.0067 589.883C18.9768 593.552 22.2342 596.133 25.9668 597.117L1.91132 641.945C-0.636212 646.693 -0.636212 652.543 1.91132 657.292C4.45885 662.04 9.16892 664.965 14.2654 664.965H111.745V721.078H94.4075C86.5301 721.078 80.1421 727.951 80.1421 736.425C80.1421 744.902 86.5301 751.772 94.4075 751.772H605.1C612.979 751.772 619.366 744.902 619.366 736.425C619.366 727.951 612.979 721.08 605.1 721.08H587.257V664.966H684.736C689.831 664.966 694.541 662.04 697.09 657.293C699.636 652.545 699.636 646.695 697.089 641.946ZM349.753 209.876L413.418 327.707L380.593 388.459L361.852 353.539C359.304 348.791 354.596 345.866 349.498 345.866C344.403 345.866 339.691 348.792 337.144 353.539L318.387 388.49L285.815 328.209L349.753 209.876ZM395.325 518.201L421.675 567.301C417.946 568.285 414.685 570.865 412.717 574.535C410.169 579.283 410.169 585.134 412.717 589.882L436.539 634.271H262.463L286.285 589.882C288.832 585.137 288.832 579.285 286.285 574.537C284.315 570.866 281.055 568.287 277.323 567.303L303.675 518.202C306.223 513.454 306.223 507.604 303.675 502.855C301.57 498.932 297.992 496.255 293.937 495.441L349.502 391.906L367.848 426.094C368.064 426.551 368.303 426.994 368.565 427.428L405.062 495.441C401.008 496.253 397.43 498.931 395.326 502.854C392.777 507.603 392.777 513.453 395.325 518.201ZM38.972 634.272L62.7941 589.883C65.3416 585.135 65.3416 579.285 62.7941 574.537C60.8254 570.868 57.5638 568.287 53.834 567.303L80.1845 518.202C82.732 513.454 82.732 507.604 80.1845 502.855C78.0793 498.932 74.501 496.255 70.4476 495.441L126.01 391.906L181.572 495.441C177.518 496.255 173.939 498.932 171.836 502.855C169.288 507.604 169.288 513.454 171.836 518.202L198.187 567.303C194.456 568.287 191.196 570.866 189.227 574.537C186.68 579.285 186.68 585.135 189.227 589.883L213.049 634.272H38.972ZM223.489 721.08H140.275V664.966H223.489V721.08ZM237.755 618.927L226.056 597.127C232.309 595.499 236.952 589.437 236.952 582.211C236.952 579.081 236.084 576.17 234.589 573.743L208.762 525.624C215.403 524.314 220.435 518.054 220.435 510.531C220.435 507.403 219.566 504.49 218.071 502.064L173.567 419.132L237.755 300.328L301.947 419.132L257.014 502.857C254.467 507.605 254.467 513.455 257.014 518.204C259.119 522.127 262.698 524.805 266.751 525.618L240.497 574.538C237.95 579.286 237.95 585.136 240.497 589.885C242.467 593.555 245.728 596.136 249.459 597.12L237.755 618.927ZM335.237 721.08H252.02V664.966H335.237V721.08ZM446.949 721.08H363.767V664.966H446.949V721.08ZM461.247 618.927L449.548 597.126C455.801 595.496 460.443 589.437 460.443 582.211C460.443 579.082 459.573 576.17 458.078 573.743L432.253 525.624C438.892 524.314 443.925 518.054 443.925 510.531C443.925 507.401 443.056 504.49 441.561 502.064L397.041 419.103L461.213 300.329L525.42 419.164L480.505 502.858C477.957 507.607 477.957 513.457 480.505 518.205C482.609 522.128 486.188 524.806 490.242 525.62L463.988 574.539C461.441 579.288 461.441 585.138 463.988 589.886C465.958 593.557 469.218 596.137 472.95 597.121L461.247 618.927ZM558.727 721.081H475.479V664.968H558.727V721.081ZM485.953 634.272L509.775 589.883C512.323 585.135 512.323 579.285 509.775 574.537C507.805 570.866 504.545 568.287 500.814 567.303L527.166 518.202C529.713 513.454 529.713 507.604 527.166 502.855C525.061 498.932 521.482 496.255 517.428 495.441L572.993 391.906L628.554 495.443C624.499 496.255 620.922 498.932 618.818 502.855C616.271 507.604 616.271 513.454 618.818 518.202L645.169 567.303C641.439 568.287 638.179 570.866 636.21 574.537C633.663 579.285 633.663 585.135 636.21 589.883L660.031 634.272H485.953Z" fill="#E3EB86"/>
<path d="M45.9055 721.081H14.5214C6.64399 721.081 0.256042 727.954 0.256042 736.428C0.256042 744.904 6.64262 751.775 14.5214 751.775H45.9041C53.7829 751.775 60.1695 744.904 60.1695 736.428C60.1708 727.952 53.7843 721.081 45.9055 721.081Z" fill="#E3EB86"/>
<path d="M683.599 721.081H653.603C645.726 721.081 639.338 727.954 639.338 736.428C639.338 744.904 645.726 751.775 653.603 751.775H683.599C691.476 751.775 697.864 744.904 697.864 736.428C697.864 727.952 691.476 721.081 683.599 721.081Z" fill="#E3EB86"/>
<path d="M248.563 55.283C232.51 21.9497 199.911 0.226807 164.461 0.226807C129.012 0.226807 96.4165 21.9497 80.3654 55.283C36.0225 56.4668 0.288757 95.6297 0.288757 143.599C0.288757 152.074 6.67534 158.946 14.5541 158.946H314.371C322.25 158.946 328.636 152.074 328.636 143.599C328.636 95.6297 292.907 56.4668 248.563 55.283ZM30.7472 128.251C37.0123 103.891 57.8117 85.9491 82.4337 85.9491C84.2331 85.9491 86.1007 86.0519 87.993 86.2575C94.3918 86.9493 100.445 82.944 102.747 76.4771C112.446 49.2273 137.248 30.9193 164.463 30.9193C191.679 30.9193 216.484 49.2273 226.184 76.4771C228.485 82.9455 234.506 86.9493 240.939 86.2575C242.826 86.0519 244.696 85.9491 246.493 85.9491C271.116 85.9491 291.914 103.89 298.178 128.251H30.7472Z" fill="#E3EB86"/>
</svg>
