<svg width="315" height="325" viewBox="0 0 315 325" fill="none" xmlns="http://www.w3.org/2000/svg">
<g clip-path="url(#clip0)">
<path d="M287.097 96.2145C287.097 71.5551 268.959 51.2726 245.697 48.7814C239.168 30.6162 222.271 17.6437 202.388 17.6437C193.685 17.6437 185.573 20.1717 178.625 24.4854C170.723 9.88594 155.619 0 138.257 0C115.24 0 96.2044 17.3804 92.672 40.1017C90.7935 39.8649 88.8946 39.7013 86.9547 39.7013C61.4258 39.7013 40.726 61.0533 40.726 87.3977C40.726 88.6881 40.8178 89.9522 40.9149 91.2162C27.9695 99.6696 19.3524 114.532 19.3524 131.507C19.3524 146.513 26.0808 159.88 36.5808 168.623C36.5348 169.481 36.4532 170.334 36.4532 171.204C36.4532 197.543 57.1482 218.9 82.6819 218.9C90.3338 218.9 97.5315 216.951 103.887 213.56C112.693 220.085 125.302 228.249 131.407 226.621C131.407 226.621 133.678 262.921 133.188 272.138C132.254 289.676 127.154 309.2 123.566 325.001H179.147C179.147 325.001 170.954 289.777 170.596 278.016C170.239 266.254 174.159 244.597 174.159 244.597L193.44 224.02C200.862 229.255 209.826 232.231 219.495 232.231C243.395 232.231 263.054 213.471 265.468 189.469C283.074 182.733 295.648 165.253 295.648 144.738C295.648 132.624 291.237 121.606 284.029 113.19C285.979 107.912 287.097 102.203 287.097 96.2145ZM114.566 205.685C118.272 202.035 121.381 197.769 123.754 193.034L132.831 212.653C132.826 212.654 127.889 214.903 114.566 205.685ZM148.503 217.799C143.806 218.679 135.807 203.758 130.13 191.628C136.425 194.941 143.531 196.847 151.085 196.847C153.025 196.847 154.93 196.684 156.808 196.442C155.348 206.149 152.776 216.993 148.503 217.799ZM168.457 227.348C157.594 230.46 164.098 207.244 167.211 193.803C169.463 192.94 171.643 191.923 173.715 190.717C174.966 200.513 179.09 209.351 185.201 216.34C179.907 221.191 173.812 225.815 168.457 227.348Z" fill="#E3EB86"/>
</g>
<defs>
<clipPath id="clip0">
<rect width="315" height="325" fill="white"/>
</clipPath>
</defs>
</svg>
