<svg width="187" height="196" viewBox="0 0 187 196" fill="none" xmlns="http://www.w3.org/2000/svg">
<path d="M180.288 113.211C178.4 113.088 176.363 113.025 174.234 113.025C170.176 113.025 165.331 113.242 159.712 113.843L159.228 91.6373C161.434 92.4585 163.787 92.8902 166.209 92.8902C177.664 92.8902 186.983 83.1226 186.983 71.1168C186.983 64.2068 183.897 57.7985 178.66 53.6915C178.837 52.6233 178.925 51.5357 178.925 50.4443C178.925 42.2866 173.941 35.1635 166.758 32.595C167.535 30.4578 167.939 28.1766 167.939 25.8761C167.939 15.4742 159.864 7.01147 149.94 7.01147C140.015 7.01147 131.941 15.4742 131.941 25.8761C131.941 26.069 131.944 26.2623 131.949 26.4569C122.934 27.4739 115.891 35.4973 115.891 45.2124C115.891 49.9611 117.584 54.477 120.602 57.9346C116.495 62.0292 114.182 67.6425 114.182 73.6754C114.182 85.6812 123.501 95.4488 134.956 95.4488C137.414 95.4488 139.808 94.9913 142.047 94.1383L141.547 116.757C130.348 119.107 117.238 122.815 102.24 128.556C71.5036 140.32 47.1559 154.756 35.3781 162.315C27.2999 167.5 20.367 172.471 15.3286 176.692C7.81183 182.989 7.44958 185.101 7.70037 186.587C7.89379 187.73 8.81378 188.952 10.8181 188.952H179.055C179.216 188.969 179.464 188.988 179.775 188.988C180.72 188.988 182.544 188.801 184.144 187.547C185.447 186.527 187 184.471 187 180.47V120.462C187 117.354 185.835 113.573 180.288 113.211Z" fill="#E3EB86"/>
<path d="M93.2685 117.984C94.3552 117.55 95.1646 116.406 95.2818 115.138C95.3801 114.069 94.9507 113.113 94.1335 112.579C84.553 106.321 69.7633 100.788 54.8805 96.8954L54.4727 78.175C55.9697 78.6509 57.5441 78.903 59.1591 78.903C68.0093 78.903 75.209 71.3569 75.209 62.0807C75.209 56.8526 72.9227 51.9961 69.0281 48.8173C69.1322 48.0927 69.1846 47.3591 69.1846 46.6234C69.1846 40.4779 65.5408 35.0892 60.2303 32.9519C60.7171 31.4443 60.9691 29.8547 60.9691 28.2539C60.9691 20.1773 54.6997 13.6062 46.994 13.6062C39.3022 13.6062 33.0419 20.1533 33.0189 28.2097C26.2443 29.2177 21.0182 35.337 21.0182 42.7118C21.0182 46.2218 22.2094 49.5681 24.3453 52.1976C21.3952 55.3253 19.7405 59.5096 19.7405 63.9946C19.7405 73.2708 26.9401 80.8169 35.7903 80.8169C37.4328 80.8169 39.0363 80.5485 40.5591 80.0511L40.2591 93.6036C31.5076 91.9572 23.3487 91.0303 16.935 91.0303C5.69774 91.0303 0 93.7444 0 99.0966V165.345C0 167.948 1.50434 169.113 2.99557 169.113C4.16061 169.113 5.07567 168.427 5.41457 168.133C6.13007 167.512 6.81974 166.934 7.47172 166.388C12.9109 161.831 20.2883 156.532 28.8067 151.066C40.1325 143.797 63.5676 129.834 93.2685 117.984Z" fill="#E3EB86"/>
</svg>
